solid OpenSCAD_Model
  facet normal -1 0 0
    outer loop
      vertex 0 12 0
      vertex 0 9.5 3
      vertex 0 12 9
    endloop
  endfacet
  facet normal -1 0 0
    outer loop
      vertex 0 12 0
      vertex 0 2.5 3
      vertex 0 9.5 3
    endloop
  endfacet
  facet normal -1 0 0
    outer loop
      vertex 0 0 0
      vertex 0 2.5 3
      vertex 0 12 0
    endloop
  endfacet
  facet normal -1 0 0
    outer loop
      vertex 0 0 9
      vertex 0 2.5 3
      vertex 0 0 0
    endloop
  endfacet
  facet normal -1 0 0
    outer loop
      vertex 0 2.5 3
      vertex 0 0 9
      vertex 0 2.5 9
    endloop
  endfacet
  facet normal -1 -0 0
    outer loop
      vertex 0 12 9
      vertex 0 9.5 3
      vertex 0 9.5 9
    endloop
  endfacet
  facet normal 0 0 1
    outer loop
      vertex 12 12 9
      vertex 9.5 9.5 9
      vertex 12 0 9
    endloop
  endfacet
  facet normal -0 0 1
    outer loop
      vertex 0 12 9
      vertex 9.5 9.5 9
      vertex 12 12 9
    endloop
  endfacet
  facet normal 0 0 1
    outer loop
      vertex 9.5 9.5 9
      vertex 0 12 9
      vertex 0 9.5 9
    endloop
  endfacet
  facet normal -0 0 1
    outer loop
      vertex 9.5 2.5 9
      vertex 12 0 9
      vertex 9.5 9.5 9
    endloop
  endfacet
  facet normal 0 0 1
    outer loop
      vertex 0 0 9
      vertex 9.5 2.5 9
      vertex 0 2.5 9
    endloop
  endfacet
  facet normal 0 0 1
    outer loop
      vertex 9.5 2.5 9
      vertex 0 0 9
      vertex 12 0 9
    endloop
  endfacet
  facet normal 1 -0 0
    outer loop
      vertex 12 0 9
      vertex 12 12 0
      vertex 12 12 9
    endloop
  endfacet
  facet normal 1 0 0
    outer loop
      vertex 12 12 0
      vertex 12 0 9
      vertex 12 0 0
    endloop
  endfacet
  facet normal 0 1 -0
    outer loop
      vertex 12 12 0
      vertex 0 12 9
      vertex 12 12 9
    endloop
  endfacet
  facet normal 0 1 0
    outer loop
      vertex 0 12 9
      vertex 12 12 0
      vertex 0 12 0
    endloop
  endfacet
  facet normal 0 -1 0
    outer loop
      vertex 0 9.5 3
      vertex 9.5 9.5 9
      vertex 0 9.5 9
    endloop
  endfacet
  facet normal 0 -1 -0
    outer loop
      vertex 9.5 9.5 9
      vertex 0 9.5 3
      vertex 9.5 9.5 3
    endloop
  endfacet
  facet normal 0 -1 0
    outer loop
      vertex 0 0 0
      vertex 12 0 9
      vertex 0 0 9
    endloop
  endfacet
  facet normal 0 -1 -0
    outer loop
      vertex 12 0 9
      vertex 0 0 0
      vertex 12 0 0
    endloop
  endfacet
  facet normal 0 1 -0
    outer loop
      vertex 9.5 2.5 3
      vertex 0 2.5 9
      vertex 9.5 2.5 9
    endloop
  endfacet
  facet normal 0 1 0
    outer loop
      vertex 0 2.5 9
      vertex 9.5 2.5 3
      vertex 0 2.5 3
    endloop
  endfacet
  facet normal -1 0 0
    outer loop
      vertex 9.5 2.5 3
      vertex 9.5 9.5 9
      vertex 9.5 9.5 3
    endloop
  endfacet
  facet normal -1 -0 0
    outer loop
      vertex 9.5 9.5 9
      vertex 9.5 2.5 3
      vertex 9.5 2.5 9
    endloop
  endfacet
  facet normal -0 0 1
    outer loop
      vertex 0 9.5 3
      vertex 9.5 2.5 3
      vertex 9.5 9.5 3
    endloop
  endfacet
  facet normal 0 0 1
    outer loop
      vertex 9.5 2.5 3
      vertex 0 9.5 3
      vertex 0 2.5 3
    endloop
  endfacet
  facet normal 0 0 -1
    outer loop
      vertex 0 0 0
      vertex 12 12 0
      vertex 12 0 0
    endloop
  endfacet
  facet normal -0 0 -1
    outer loop
      vertex 12 12 0
      vertex 0 0 0
      vertex 0 12 0
    endloop
  endfacet
endsolid OpenSCAD_Model
