solid OpenSCAD_Model
  facet normal -1 0 0
    outer loop
      vertex 0 0 0
      vertex 0 0 26.5
      vertex 0 27 0
    endloop
  endfacet
  facet normal -1 0 0
    outer loop
      vertex 0 27 0
      vertex 0 0 26.5
      vertex 0 27 26.5
    endloop
  endfacet
  facet normal 0 -1 0
    outer loop
      vertex 2.5 0 5.5
      vertex 0 0 0
      vertex 27 0 0
    endloop
  endfacet
  facet normal 0 -1 0
    outer loop
      vertex 2.5 0 5.5
      vertex 2.5 0 26.5
      vertex 0 0 26.5
    endloop
  endfacet
  facet normal 0 -1 0
    outer loop
      vertex 27 0 26.5
      vertex 24.5 0 26.5
      vertex 27 0 0
    endloop
  endfacet
  facet normal 0 -1 0
    outer loop
      vertex 24.5 0 26.5
      vertex 24.5 0 5.5
      vertex 27 0 0
    endloop
  endfacet
  facet normal 0 -1 0
    outer loop
      vertex 0 0 26.5
      vertex 0 0 0
      vertex 2.5 0 5.5
    endloop
  endfacet
  facet normal 0 -1 0
    outer loop
      vertex 24.5 0 5.5
      vertex 2.5 0 5.5
      vertex 27 0 0
    endloop
  endfacet
  facet normal 0 0 -1
    outer loop
      vertex 0 0 0
      vertex 0 27 0
      vertex 27 0 0
    endloop
  endfacet
  facet normal 0 0 -1
    outer loop
      vertex 27 0 0
      vertex 0 27 0
      vertex 27 27 0
    endloop
  endfacet
  facet normal 0 1 0
    outer loop
      vertex 24.5 27 5.5
      vertex 27 27 0
      vertex 2.5 27 5.5
    endloop
  endfacet
  facet normal 0 1 0
    outer loop
      vertex 0 27 0
      vertex 0 27 26.5
      vertex 2.5 27 5.5
    endloop
  endfacet
  facet normal 0 1 0
    outer loop
      vertex 0 27 0
      vertex 2.5 27 5.5
      vertex 27 27 0
    endloop
  endfacet
  facet normal 0 1 0
    outer loop
      vertex 27 27 0
      vertex 24.5 27 5.5
      vertex 24.5 27 26.5
    endloop
  endfacet
  facet normal 0 1 0
    outer loop
      vertex 27 27 0
      vertex 24.5 27 26.5
      vertex 27 27 26.5
    endloop
  endfacet
  facet normal 0 1 0
    outer loop
      vertex 2.5 27 5.5
      vertex 0 27 26.5
      vertex 2.5 27 26.5
    endloop
  endfacet
  facet normal 0 0 1
    outer loop
      vertex 0 27 26.5
      vertex 0 0 26.5
      vertex 2.5 0 26.5
    endloop
  endfacet
  facet normal 0 0 1
    outer loop
      vertex 2.5 27 26.5
      vertex 0 27 26.5
      vertex 2.5 0 26.5
    endloop
  endfacet
  facet normal 1 0 0
    outer loop
      vertex 2.5 0 26.5
      vertex 2.5 0 5.5
      vertex 2.5 27 5.5
    endloop
  endfacet
  facet normal 1 0 0
    outer loop
      vertex 2.5 27 26.5
      vertex 2.5 0 26.5
      vertex 2.5 27 5.5
    endloop
  endfacet
  facet normal 0 0 1
    outer loop
      vertex 2.5 27 5.5
      vertex 2.5 0 5.5
      vertex 24.5 0 5.5
    endloop
  endfacet
  facet normal 0 0 1
    outer loop
      vertex 27 2.5 5.5
      vertex 2.5 27 5.5
      vertex 24.5 2.5 5.5
    endloop
  endfacet
  facet normal 0 0 1
    outer loop
      vertex 24.5 2.5 5.5
      vertex 2.5 27 5.5
      vertex 24.5 0 5.5
    endloop
  endfacet
  facet normal 0 0 1
    outer loop
      vertex 24.5 24.5 5.5
      vertex 2.5 27 5.5
      vertex 27 2.5 5.5
    endloop
  endfacet
  facet normal 0 0 1
    outer loop
      vertex 27 24.5 5.5
      vertex 24.5 24.5 5.5
      vertex 27 2.5 5.5
    endloop
  endfacet
  facet normal 0 0 1
    outer loop
      vertex 24.5 24.5 5.5
      vertex 24.5 27 5.5
      vertex 2.5 27 5.5
    endloop
  endfacet
  facet normal -1 0 0
    outer loop
      vertex 24.5 0 5.5
      vertex 24.5 0 26.5
      vertex 24.5 2.5 5.5
    endloop
  endfacet
  facet normal -1 0 0
    outer loop
      vertex 24.5 2.5 5.5
      vertex 24.5 0 26.5
      vertex 24.5 2.5 26.5
    endloop
  endfacet
  facet normal 0 0 1
    outer loop
      vertex 24.5 2.5 26.5
      vertex 24.5 0 26.5
      vertex 27 0 26.5
    endloop
  endfacet
  facet normal 0 0 1
    outer loop
      vertex 27 2.5 26.5
      vertex 24.5 2.5 26.5
      vertex 27 0 26.5
    endloop
  endfacet
  facet normal 1 0 0
    outer loop
      vertex 27 2.5 5.5
      vertex 27 0 0
      vertex 27 27 0
    endloop
  endfacet
  facet normal 1 0 0
    outer loop
      vertex 27 2.5 5.5
      vertex 27 2.5 26.5
      vertex 27 0 26.5
    endloop
  endfacet
  facet normal 1 0 0
    outer loop
      vertex 27 27 26.5
      vertex 27 24.5 26.5
      vertex 27 27 0
    endloop
  endfacet
  facet normal 1 0 0
    outer loop
      vertex 27 24.5 26.5
      vertex 27 24.5 5.5
      vertex 27 27 0
    endloop
  endfacet
  facet normal 1 0 0
    outer loop
      vertex 27 0 26.5
      vertex 27 0 0
      vertex 27 2.5 5.5
    endloop
  endfacet
  facet normal 1 0 0
    outer loop
      vertex 27 24.5 5.5
      vertex 27 2.5 5.5
      vertex 27 27 0
    endloop
  endfacet
  facet normal 0 0 1
    outer loop
      vertex 24.5 27 26.5
      vertex 24.5 24.5 26.5
      vertex 27 24.5 26.5
    endloop
  endfacet
  facet normal 0 0 1
    outer loop
      vertex 27 27 26.5
      vertex 24.5 27 26.5
      vertex 27 24.5 26.5
    endloop
  endfacet
  facet normal -1 0 0
    outer loop
      vertex 24.5 24.5 5.5
      vertex 24.5 24.5 26.5
      vertex 24.5 27 5.5
    endloop
  endfacet
  facet normal -1 0 0
    outer loop
      vertex 24.5 27 5.5
      vertex 24.5 24.5 26.5
      vertex 24.5 27 26.5
    endloop
  endfacet
  facet normal 0 -1 0
    outer loop
      vertex 24.5 24.5 26.5
      vertex 24.5 24.5 5.5
      vertex 27 24.5 5.5
    endloop
  endfacet
  facet normal 0 -1 0
    outer loop
      vertex 27 24.5 26.5
      vertex 24.5 24.5 26.5
      vertex 27 24.5 5.5
    endloop
  endfacet
  facet normal 0 1 0
    outer loop
      vertex 24.5 2.5 5.5
      vertex 24.5 2.5 26.5
      vertex 27 2.5 5.5
    endloop
  endfacet
  facet normal 0 1 0
    outer loop
      vertex 27 2.5 5.5
      vertex 24.5 2.5 26.5
      vertex 27 2.5 26.5
    endloop
  endfacet
endsolid OpenSCAD_Model
