solid OpenSCAD_Model
  facet normal -1 0 0
    outer loop
      vertex 0 0 0
      vertex 0 0 5
      vertex 0 8 0
    endloop
  endfacet
  facet normal -1 0 0
    outer loop
      vertex 0 8 0
      vertex 0 0 5
      vertex 0 8 5
    endloop
  endfacet
  facet normal 0 -1 0
    outer loop
      vertex 2.5 0 3
      vertex 0 0 0
      vertex 8 0 0
    endloop
  endfacet
  facet normal 0 -1 0
    outer loop
      vertex 2.5 0 3
      vertex 2.5 0 5
      vertex 0 0 5
    endloop
  endfacet
  facet normal 0 -1 0
    outer loop
      vertex 8 0 5
      vertex 5.5 0 5
      vertex 8 0 0
    endloop
  endfacet
  facet normal 0 -1 0
    outer loop
      vertex 5.5 0 5
      vertex 5.5 0 3
      vertex 8 0 0
    endloop
  endfacet
  facet normal 0 -1 0
    outer loop
      vertex 0 0 5
      vertex 0 0 0
      vertex 2.5 0 3
    endloop
  endfacet
  facet normal 0 -1 0
    outer loop
      vertex 5.5 0 3
      vertex 2.5 0 3
      vertex 8 0 0
    endloop
  endfacet
  facet normal 0 0 -1
    outer loop
      vertex 0 0 0
      vertex 0 8 0
      vertex 8 0 0
    endloop
  endfacet
  facet normal 0 0 -1
    outer loop
      vertex 8 0 0
      vertex 0 8 0
      vertex 8 8 0
    endloop
  endfacet
  facet normal 0 1 0
    outer loop
      vertex 5.5 8 3
      vertex 8 8 0
      vertex 2.5 8 3
    endloop
  endfacet
  facet normal 0 1 0
    outer loop
      vertex 0 8 0
      vertex 0 8 5
      vertex 2.5 8 3
    endloop
  endfacet
  facet normal 0 1 0
    outer loop
      vertex 0 8 0
      vertex 2.5 8 3
      vertex 8 8 0
    endloop
  endfacet
  facet normal 0 1 0
    outer loop
      vertex 8 8 0
      vertex 5.5 8 3
      vertex 5.5 8 5
    endloop
  endfacet
  facet normal 0 1 0
    outer loop
      vertex 8 8 0
      vertex 5.5 8 5
      vertex 8 8 5
    endloop
  endfacet
  facet normal 0 1 0
    outer loop
      vertex 2.5 8 3
      vertex 0 8 5
      vertex 2.5 8 5
    endloop
  endfacet
  facet normal 0 0 1
    outer loop
      vertex 0 8 5
      vertex 0 0 5
      vertex 2.5 0 5
    endloop
  endfacet
  facet normal 0 0 1
    outer loop
      vertex 2.5 8 5
      vertex 0 8 5
      vertex 2.5 0 5
    endloop
  endfacet
  facet normal 1 0 0
    outer loop
      vertex 2.5 0 5
      vertex 2.5 0 3
      vertex 2.5 8 3
    endloop
  endfacet
  facet normal 1 0 0
    outer loop
      vertex 2.5 8 5
      vertex 2.5 0 5
      vertex 2.5 8 3
    endloop
  endfacet
  facet normal 0 0 1
    outer loop
      vertex 2.5 8 3
      vertex 2.5 0 3
      vertex 5.5 0 3
    endloop
  endfacet
  facet normal 0 0 1
    outer loop
      vertex 5.5 8 3
      vertex 2.5 8 3
      vertex 5.5 0 3
    endloop
  endfacet
  facet normal -1 0 0
    outer loop
      vertex 5.5 0 3
      vertex 5.5 0 5
      vertex 5.5 8 3
    endloop
  endfacet
  facet normal -1 0 0
    outer loop
      vertex 5.5 8 3
      vertex 5.5 0 5
      vertex 5.5 8 5
    endloop
  endfacet
  facet normal 0 0 1
    outer loop
      vertex 5.5 8 5
      vertex 5.5 0 5
      vertex 8 0 5
    endloop
  endfacet
  facet normal 0 0 1
    outer loop
      vertex 8 8 5
      vertex 5.5 8 5
      vertex 8 0 5
    endloop
  endfacet
  facet normal 1 0 0
    outer loop
      vertex 8 0 5
      vertex 8 0 0
      vertex 8 8 0
    endloop
  endfacet
  facet normal 1 0 0
    outer loop
      vertex 8 8 5
      vertex 8 0 5
      vertex 8 8 0
    endloop
  endfacet
endsolid OpenSCAD_Model
