solid OpenSCAD_Model
  facet normal -1 0 0
    outer loop
      vertex 0 0 0
      vertex 0 0 25.25
      vertex 0 26 0
    endloop
  endfacet
  facet normal -1 0 0
    outer loop
      vertex 0 26 0
      vertex 0 0 25.25
      vertex 0 26 25.25
    endloop
  endfacet
  facet normal 0 -1 0
    outer loop
      vertex 0 0 25.25
      vertex 0 0 0
      vertex 26 0 0
    endloop
  endfacet
  facet normal 0 -1 0
    outer loop
      vertex 26 0 25.25
      vertex 0 0 25.25
      vertex 26 0 0
    endloop
  endfacet
  facet normal 0 0 -1
    outer loop
      vertex 0 0 0
      vertex 0 26 0
      vertex 26 0 0
    endloop
  endfacet
  facet normal 0 0 -1
    outer loop
      vertex 26 0 0
      vertex 0 26 0
      vertex 26 26 0
    endloop
  endfacet
  facet normal 0 1 0
    outer loop
      vertex 0 26 0
      vertex 0 26 25.25
      vertex 26 26 0
    endloop
  endfacet
  facet normal 0 1 0
    outer loop
      vertex 26 26 0
      vertex 0 26 25.25
      vertex 26 26 25.25
    endloop
  endfacet
  facet normal 0 0 1
    outer loop
      vertex 2.5 2.5 25.25
      vertex 0 0 25.25
      vertex 26 0 25.25
    endloop
  endfacet
  facet normal 0 0 1
    outer loop
      vertex 2.5 23.5 25.25
      vertex 0 26 25.25
      vertex 2.5 2.5 25.25
    endloop
  endfacet
  facet normal 0 0 1
    outer loop
      vertex 0 26 25.25
      vertex 0 0 25.25
      vertex 2.5 2.5 25.25
    endloop
  endfacet
  facet normal 0 0 1
    outer loop
      vertex 2.5 23.5 25.25
      vertex 26 23.5 25.25
      vertex 0 26 25.25
    endloop
  endfacet
  facet normal 0 0 1
    outer loop
      vertex 26 26 25.25
      vertex 0 26 25.25
      vertex 26 23.5 25.25
    endloop
  endfacet
  facet normal 0 0 1
    outer loop
      vertex 26 2.5 25.25
      vertex 2.5 2.5 25.25
      vertex 26 0 25.25
    endloop
  endfacet
  facet normal 1 0 0
    outer loop
      vertex 26 2.5 5.25
      vertex 26 0 0
      vertex 26 26 0
    endloop
  endfacet
  facet normal 1 0 0
    outer loop
      vertex 26 2.5 5.25
      vertex 26 2.5 25.25
      vertex 26 0 25.25
    endloop
  endfacet
  facet normal 1 0 0
    outer loop
      vertex 26 26 25.25
      vertex 26 23.5 25.25
      vertex 26 26 0
    endloop
  endfacet
  facet normal 1 0 0
    outer loop
      vertex 26 23.5 25.25
      vertex 26 23.5 5.25
      vertex 26 26 0
    endloop
  endfacet
  facet normal 1 0 0
    outer loop
      vertex 26 0 25.25
      vertex 26 0 0
      vertex 26 2.5 5.25
    endloop
  endfacet
  facet normal 1 0 0
    outer loop
      vertex 26 23.5 5.25
      vertex 26 2.5 5.25
      vertex 26 26 0
    endloop
  endfacet
  facet normal 0 -1 0
    outer loop
      vertex 2.5 23.5 25.25
      vertex 2.5 23.5 5.25
      vertex 26 23.5 5.25
    endloop
  endfacet
  facet normal 0 -1 0
    outer loop
      vertex 26 23.5 25.25
      vertex 2.5 23.5 25.25
      vertex 26 23.5 5.25
    endloop
  endfacet
  facet normal 1 0 0
    outer loop
      vertex 2.5 2.5 25.25
      vertex 2.5 2.5 5.25
      vertex 2.5 23.5 5.25
    endloop
  endfacet
  facet normal 1 0 0
    outer loop
      vertex 2.5 23.5 25.25
      vertex 2.5 2.5 25.25
      vertex 2.5 23.5 5.25
    endloop
  endfacet
  facet normal 0 1 0
    outer loop
      vertex 2.5 2.5 5.25
      vertex 2.5 2.5 25.25
      vertex 26 2.5 5.25
    endloop
  endfacet
  facet normal 0 1 0
    outer loop
      vertex 26 2.5 5.25
      vertex 2.5 2.5 25.25
      vertex 26 2.5 25.25
    endloop
  endfacet
  facet normal 0 0 1
    outer loop
      vertex 2.5 23.5 5.25
      vertex 2.5 2.5 5.25
      vertex 26 2.5 5.25
    endloop
  endfacet
  facet normal 0 0 1
    outer loop
      vertex 26 23.5 5.25
      vertex 2.5 23.5 5.25
      vertex 26 2.5 5.25
    endloop
  endfacet
endsolid OpenSCAD_Model
