solid OpenSCAD_Model
  facet normal -1 0 0
    outer loop
      vertex 0 0 0
      vertex 0 0 22.75
      vertex 0 24 0
    endloop
  endfacet
  facet normal -1 0 0
    outer loop
      vertex 0 24 0
      vertex 0 0 22.75
      vertex 0 24 22.75
    endloop
  endfacet
  facet normal 0 -1 0
    outer loop
      vertex 0 0 22.75
      vertex 0 0 0
      vertex 24 0 0
    endloop
  endfacet
  facet normal 0 -1 0
    outer loop
      vertex 24 0 22.75
      vertex 0 0 22.75
      vertex 24 0 0
    endloop
  endfacet
  facet normal 0 0 -1
    outer loop
      vertex 0 0 0
      vertex 0 24 0
      vertex 24 0 0
    endloop
  endfacet
  facet normal 0 0 -1
    outer loop
      vertex 24 0 0
      vertex 0 24 0
      vertex 24 24 0
    endloop
  endfacet
  facet normal 0 1 0
    outer loop
      vertex 21.5 24 4.75
      vertex 24 24 0
      vertex 2.5 24 4.75
    endloop
  endfacet
  facet normal 0 1 0
    outer loop
      vertex 0 24 0
      vertex 0 24 22.75
      vertex 2.5 24 4.75
    endloop
  endfacet
  facet normal 0 1 0
    outer loop
      vertex 0 24 0
      vertex 2.5 24 4.75
      vertex 24 24 0
    endloop
  endfacet
  facet normal 0 1 0
    outer loop
      vertex 24 24 0
      vertex 21.5 24 4.75
      vertex 21.5 24 22.75
    endloop
  endfacet
  facet normal 0 1 0
    outer loop
      vertex 24 24 0
      vertex 21.5 24 22.75
      vertex 24 24 22.75
    endloop
  endfacet
  facet normal 0 1 0
    outer loop
      vertex 2.5 24 4.75
      vertex 0 24 22.75
      vertex 2.5 24 22.75
    endloop
  endfacet
  facet normal 0 0 1
    outer loop
      vertex 2.5 2.5 22.75
      vertex 0 0 22.75
      vertex 24 0 22.75
    endloop
  endfacet
  facet normal 0 0 1
    outer loop
      vertex 2.5 2.5 22.75
      vertex 2.5 24 22.75
      vertex 0 24 22.75
    endloop
  endfacet
  facet normal 0 0 1
    outer loop
      vertex 0 24 22.75
      vertex 0 0 22.75
      vertex 2.5 2.5 22.75
    endloop
  endfacet
  facet normal 0 0 1
    outer loop
      vertex 24 2.5 22.75
      vertex 2.5 2.5 22.75
      vertex 24 0 22.75
    endloop
  endfacet
  facet normal 1 0 0
    outer loop
      vertex 24 2.5 4.75
      vertex 24 0 0
      vertex 24 24 0
    endloop
  endfacet
  facet normal 1 0 0
    outer loop
      vertex 24 2.5 4.75
      vertex 24 2.5 22.75
      vertex 24 0 22.75
    endloop
  endfacet
  facet normal 1 0 0
    outer loop
      vertex 24 24 22.75
      vertex 24 21.5 22.75
      vertex 24 24 0
    endloop
  endfacet
  facet normal 1 0 0
    outer loop
      vertex 24 21.5 22.75
      vertex 24 21.5 4.75
      vertex 24 24 0
    endloop
  endfacet
  facet normal 1 0 0
    outer loop
      vertex 24 0 22.75
      vertex 24 0 0
      vertex 24 2.5 4.75
    endloop
  endfacet
  facet normal 1 0 0
    outer loop
      vertex 24 21.5 4.75
      vertex 24 2.5 4.75
      vertex 24 24 0
    endloop
  endfacet
  facet normal 0 0 1
    outer loop
      vertex 21.5 24 22.75
      vertex 21.5 21.5 22.75
      vertex 24 21.5 22.75
    endloop
  endfacet
  facet normal 0 0 1
    outer loop
      vertex 24 24 22.75
      vertex 21.5 24 22.75
      vertex 24 21.5 22.75
    endloop
  endfacet
  facet normal -1 0 0
    outer loop
      vertex 21.5 21.5 4.75
      vertex 21.5 21.5 22.75
      vertex 21.5 24 4.75
    endloop
  endfacet
  facet normal -1 0 0
    outer loop
      vertex 21.5 24 4.75
      vertex 21.5 21.5 22.75
      vertex 21.5 24 22.75
    endloop
  endfacet
  facet normal 0 0 1
    outer loop
      vertex 2.5 24 4.75
      vertex 2.5 2.5 4.75
      vertex 24 2.5 4.75
    endloop
  endfacet
  facet normal 0 0 1
    outer loop
      vertex 21.5 21.5 4.75
      vertex 2.5 24 4.75
      vertex 24 2.5 4.75
    endloop
  endfacet
  facet normal 0 0 1
    outer loop
      vertex 24 21.5 4.75
      vertex 21.5 21.5 4.75
      vertex 24 2.5 4.75
    endloop
  endfacet
  facet normal 0 0 1
    outer loop
      vertex 21.5 21.5 4.75
      vertex 21.5 24 4.75
      vertex 2.5 24 4.75
    endloop
  endfacet
  facet normal 1 0 0
    outer loop
      vertex 2.5 2.5 22.75
      vertex 2.5 2.5 4.75
      vertex 2.5 24 4.75
    endloop
  endfacet
  facet normal 1 0 0
    outer loop
      vertex 2.5 24 22.75
      vertex 2.5 2.5 22.75
      vertex 2.5 24 4.75
    endloop
  endfacet
  facet normal 0 1 0
    outer loop
      vertex 2.5 2.5 4.75
      vertex 2.5 2.5 22.75
      vertex 24 2.5 4.75
    endloop
  endfacet
  facet normal 0 1 0
    outer loop
      vertex 24 2.5 4.75
      vertex 2.5 2.5 22.75
      vertex 24 2.5 22.75
    endloop
  endfacet
  facet normal 0 -1 0
    outer loop
      vertex 21.5 21.5 22.75
      vertex 21.5 21.5 4.75
      vertex 24 21.5 4.75
    endloop
  endfacet
  facet normal 0 -1 0
    outer loop
      vertex 24 21.5 22.75
      vertex 21.5 21.5 22.75
      vertex 24 21.5 4.75
    endloop
  endfacet
endsolid OpenSCAD_Model
