solid OpenSCAD_Model
  facet normal -1 0 0
    outer loop
      vertex 0 7.5 3
      vertex 0 10 0
      vertex 0 2.5 3
    endloop
  endfacet
  facet normal -1 0 0
    outer loop
      vertex 0 0 0
      vertex 0 0 7
      vertex 0 2.5 3
    endloop
  endfacet
  facet normal -1 0 0
    outer loop
      vertex 0 0 0
      vertex 0 2.5 3
      vertex 0 10 0
    endloop
  endfacet
  facet normal -1 0 0
    outer loop
      vertex 0 10 0
      vertex 0 7.5 3
      vertex 0 7.5 7
    endloop
  endfacet
  facet normal -1 0 0
    outer loop
      vertex 0 10 0
      vertex 0 7.5 7
      vertex 0 10 7
    endloop
  endfacet
  facet normal -1 0 0
    outer loop
      vertex 0 2.5 3
      vertex 0 0 7
      vertex 0 2.5 7
    endloop
  endfacet
  facet normal 0 -1 0
    outer loop
      vertex 2.5 0 3
      vertex 0 0 0
      vertex 10 0 0
    endloop
  endfacet
  facet normal 0 -1 0
    outer loop
      vertex 2.5 0 3
      vertex 2.5 0 7
      vertex 0 0 7
    endloop
  endfacet
  facet normal 0 -1 0
    outer loop
      vertex 10 0 7
      vertex 7.5 0 7
      vertex 10 0 0
    endloop
  endfacet
  facet normal 0 -1 0
    outer loop
      vertex 7.5 0 7
      vertex 7.5 0 3
      vertex 10 0 0
    endloop
  endfacet
  facet normal 0 -1 0
    outer loop
      vertex 0 0 7
      vertex 0 0 0
      vertex 2.5 0 3
    endloop
  endfacet
  facet normal 0 -1 0
    outer loop
      vertex 7.5 0 3
      vertex 2.5 0 3
      vertex 10 0 0
    endloop
  endfacet
  facet normal 0 0 -1
    outer loop
      vertex 0 0 0
      vertex 0 10 0
      vertex 10 0 0
    endloop
  endfacet
  facet normal 0 0 -1
    outer loop
      vertex 10 0 0
      vertex 0 10 0
      vertex 10 10 0
    endloop
  endfacet
  facet normal 0 1 0
    outer loop
      vertex 0 10 0
      vertex 0 10 7
      vertex 10 10 0
    endloop
  endfacet
  facet normal 0 1 0
    outer loop
      vertex 10 10 0
      vertex 0 10 7
      vertex 10 10 7
    endloop
  endfacet
  facet normal 0 0 1
    outer loop
      vertex 0 10 7
      vertex 0 7.5 7
      vertex 10 7.5 7
    endloop
  endfacet
  facet normal 0 0 1
    outer loop
      vertex 10 10 7
      vertex 0 10 7
      vertex 10 7.5 7
    endloop
  endfacet
  facet normal 0 -1 0
    outer loop
      vertex 0 7.5 7
      vertex 0 7.5 3
      vertex 10 7.5 3
    endloop
  endfacet
  facet normal 0 -1 0
    outer loop
      vertex 10 7.5 7
      vertex 0 7.5 7
      vertex 10 7.5 3
    endloop
  endfacet
  facet normal 0 0 1
    outer loop
      vertex 7.5 2.5 3
      vertex 10 2.5 3
      vertex 0 7.5 3
    endloop
  endfacet
  facet normal 0 0 1
    outer loop
      vertex 0 7.5 3
      vertex 0 2.5 3
      vertex 2.5 2.5 3
    endloop
  endfacet
  facet normal 0 0 1
    outer loop
      vertex 7.5 0 3
      vertex 0 7.5 3
      vertex 2.5 2.5 3
    endloop
  endfacet
  facet normal 0 0 1
    outer loop
      vertex 2.5 0 3
      vertex 7.5 0 3
      vertex 2.5 2.5 3
    endloop
  endfacet
  facet normal 0 0 1
    outer loop
      vertex 7.5 0 3
      vertex 7.5 2.5 3
      vertex 0 7.5 3
    endloop
  endfacet
  facet normal 0 0 1
    outer loop
      vertex 10 2.5 3
      vertex 10 7.5 3
      vertex 0 7.5 3
    endloop
  endfacet
  facet normal 0 1 0
    outer loop
      vertex 0 2.5 3
      vertex 0 2.5 7
      vertex 2.5 2.5 3
    endloop
  endfacet
  facet normal 0 1 0
    outer loop
      vertex 2.5 2.5 3
      vertex 0 2.5 7
      vertex 2.5 2.5 7
    endloop
  endfacet
  facet normal 0 0 1
    outer loop
      vertex 0 2.5 7
      vertex 0 0 7
      vertex 2.5 0 7
    endloop
  endfacet
  facet normal 0 0 1
    outer loop
      vertex 2.5 2.5 7
      vertex 0 2.5 7
      vertex 2.5 0 7
    endloop
  endfacet
  facet normal 1 0 0
    outer loop
      vertex 2.5 0 7
      vertex 2.5 0 3
      vertex 2.5 2.5 3
    endloop
  endfacet
  facet normal 1 0 0
    outer loop
      vertex 2.5 2.5 7
      vertex 2.5 0 7
      vertex 2.5 2.5 3
    endloop
  endfacet
  facet normal -1 0 0
    outer loop
      vertex 7.5 0 3
      vertex 7.5 0 7
      vertex 7.5 2.5 3
    endloop
  endfacet
  facet normal -1 0 0
    outer loop
      vertex 7.5 2.5 3
      vertex 7.5 0 7
      vertex 7.5 2.5 7
    endloop
  endfacet
  facet normal 0 0 1
    outer loop
      vertex 7.5 2.5 7
      vertex 7.5 0 7
      vertex 10 0 7
    endloop
  endfacet
  facet normal 0 0 1
    outer loop
      vertex 10 2.5 7
      vertex 7.5 2.5 7
      vertex 10 0 7
    endloop
  endfacet
  facet normal 1 0 0
    outer loop
      vertex 10 2.5 3
      vertex 10 0 0
      vertex 10 10 0
    endloop
  endfacet
  facet normal 1 0 0
    outer loop
      vertex 10 2.5 3
      vertex 10 2.5 7
      vertex 10 0 7
    endloop
  endfacet
  facet normal 1 0 0
    outer loop
      vertex 10 10 7
      vertex 10 7.5 7
      vertex 10 10 0
    endloop
  endfacet
  facet normal 1 0 0
    outer loop
      vertex 10 7.5 7
      vertex 10 7.5 3
      vertex 10 10 0
    endloop
  endfacet
  facet normal 1 0 0
    outer loop
      vertex 10 0 7
      vertex 10 0 0
      vertex 10 2.5 3
    endloop
  endfacet
  facet normal 1 0 0
    outer loop
      vertex 10 7.5 3
      vertex 10 2.5 3
      vertex 10 10 0
    endloop
  endfacet
  facet normal 0 1 0
    outer loop
      vertex 7.5 2.5 3
      vertex 7.5 2.5 7
      vertex 10 2.5 3
    endloop
  endfacet
  facet normal 0 1 0
    outer loop
      vertex 10 2.5 3
      vertex 7.5 2.5 7
      vertex 10 2.5 7
    endloop
  endfacet
endsolid OpenSCAD_Model
