solid OpenSCAD_Model
  facet normal -1 0 0
    outer loop
      vertex 0 0 0
      vertex 0 0 29
      vertex 0 29 0
    endloop
  endfacet
  facet normal -1 0 0
    outer loop
      vertex 0 29 0
      vertex 0 0 29
      vertex 0 29 29
    endloop
  endfacet
  facet normal 0 -1 0
    outer loop
      vertex 2.5 0 6
      vertex 0 0 0
      vertex 29 0 0
    endloop
  endfacet
  facet normal 0 -1 0
    outer loop
      vertex 2.5 0 6
      vertex 2.5 0 29
      vertex 0 0 29
    endloop
  endfacet
  facet normal 0 -1 0
    outer loop
      vertex 29 0 29
      vertex 26.5 0 29
      vertex 29 0 0
    endloop
  endfacet
  facet normal 0 -1 0
    outer loop
      vertex 26.5 0 29
      vertex 26.5 0 6
      vertex 29 0 0
    endloop
  endfacet
  facet normal 0 -1 0
    outer loop
      vertex 0 0 29
      vertex 0 0 0
      vertex 2.5 0 6
    endloop
  endfacet
  facet normal 0 -1 0
    outer loop
      vertex 26.5 0 6
      vertex 2.5 0 6
      vertex 29 0 0
    endloop
  endfacet
  facet normal 0 0 -1
    outer loop
      vertex 0 0 0
      vertex 0 29 0
      vertex 29 0 0
    endloop
  endfacet
  facet normal 0 0 -1
    outer loop
      vertex 29 0 0
      vertex 0 29 0
      vertex 29 29 0
    endloop
  endfacet
  facet normal 0 1 0
    outer loop
      vertex 0 29 0
      vertex 0 29 29
      vertex 29 29 0
    endloop
  endfacet
  facet normal 0 1 0
    outer loop
      vertex 29 29 0
      vertex 0 29 29
      vertex 29 29 29
    endloop
  endfacet
  facet normal 0 0 1
    outer loop
      vertex 0 29 29
      vertex 0 0 29
      vertex 2.5 0 29
    endloop
  endfacet
  facet normal 0 0 1
    outer loop
      vertex 26.5 26.5 29
      vertex 0 29 29
      vertex 2.5 26.5 29
    endloop
  endfacet
  facet normal 0 0 1
    outer loop
      vertex 2.5 26.5 29
      vertex 0 29 29
      vertex 2.5 0 29
    endloop
  endfacet
  facet normal 0 0 1
    outer loop
      vertex 29 29 29
      vertex 0 29 29
      vertex 26.5 26.5 29
    endloop
  endfacet
  facet normal 0 0 1
    outer loop
      vertex 29 0 29
      vertex 26.5 26.5 29
      vertex 26.5 0 29
    endloop
  endfacet
  facet normal 0 0 1
    outer loop
      vertex 29 29 29
      vertex 26.5 26.5 29
      vertex 29 0 29
    endloop
  endfacet
  facet normal 1 0 0
    outer loop
      vertex 2.5 0 29
      vertex 2.5 0 6
      vertex 2.5 26.5 6
    endloop
  endfacet
  facet normal 1 0 0
    outer loop
      vertex 2.5 26.5 29
      vertex 2.5 0 29
      vertex 2.5 26.5 6
    endloop
  endfacet
  facet normal 0 0 1
    outer loop
      vertex 2.5 26.5 6
      vertex 2.5 0 6
      vertex 26.5 0 6
    endloop
  endfacet
  facet normal 0 0 1
    outer loop
      vertex 26.5 26.5 6
      vertex 2.5 26.5 6
      vertex 26.5 0 6
    endloop
  endfacet
  facet normal -1 0 0
    outer loop
      vertex 26.5 0 6
      vertex 26.5 0 29
      vertex 26.5 26.5 6
    endloop
  endfacet
  facet normal -1 0 0
    outer loop
      vertex 26.5 26.5 6
      vertex 26.5 0 29
      vertex 26.5 26.5 29
    endloop
  endfacet
  facet normal 1 0 0
    outer loop
      vertex 29 0 29
      vertex 29 0 0
      vertex 29 29 0
    endloop
  endfacet
  facet normal 1 0 0
    outer loop
      vertex 29 29 29
      vertex 29 0 29
      vertex 29 29 0
    endloop
  endfacet
  facet normal 0 -1 0
    outer loop
      vertex 2.5 26.5 29
      vertex 2.5 26.5 6
      vertex 26.5 26.5 6
    endloop
  endfacet
  facet normal 0 -1 0
    outer loop
      vertex 26.5 26.5 29
      vertex 2.5 26.5 29
      vertex 26.5 26.5 6
    endloop
  endfacet
endsolid OpenSCAD_Model
