solid OpenSCAD_Model
  facet normal -1 0 0
    outer loop
      vertex 0 27.5 6.25
      vertex 0 30 0
      vertex 0 2.5 6.25
    endloop
  endfacet
  facet normal -1 0 0
    outer loop
      vertex 0 0 0
      vertex 0 0 30.25
      vertex 0 2.5 6.25
    endloop
  endfacet
  facet normal -1 0 0
    outer loop
      vertex 0 0 0
      vertex 0 2.5 6.25
      vertex 0 30 0
    endloop
  endfacet
  facet normal -1 0 0
    outer loop
      vertex 0 30 0
      vertex 0 27.5 6.25
      vertex 0 27.5 30.25
    endloop
  endfacet
  facet normal -1 0 0
    outer loop
      vertex 0 30 0
      vertex 0 27.5 30.25
      vertex 0 30 30.25
    endloop
  endfacet
  facet normal -1 0 0
    outer loop
      vertex 0 2.5 6.25
      vertex 0 0 30.25
      vertex 0 2.5 30.25
    endloop
  endfacet
  facet normal 0 -1 0
    outer loop
      vertex 2.5 0 6.25
      vertex 0 0 0
      vertex 30 0 0
    endloop
  endfacet
  facet normal 0 -1 0
    outer loop
      vertex 2.5 0 6.25
      vertex 2.5 0 30.25
      vertex 0 0 30.25
    endloop
  endfacet
  facet normal 0 -1 0
    outer loop
      vertex 30 0 30.25
      vertex 27.5 0 30.25
      vertex 30 0 0
    endloop
  endfacet
  facet normal 0 -1 0
    outer loop
      vertex 27.5 0 30.25
      vertex 27.5 0 6.25
      vertex 30 0 0
    endloop
  endfacet
  facet normal 0 -1 0
    outer loop
      vertex 0 0 30.25
      vertex 0 0 0
      vertex 2.5 0 6.25
    endloop
  endfacet
  facet normal 0 -1 0
    outer loop
      vertex 27.5 0 6.25
      vertex 2.5 0 6.25
      vertex 30 0 0
    endloop
  endfacet
  facet normal 0 0 -1
    outer loop
      vertex 0 0 0
      vertex 0 30 0
      vertex 30 0 0
    endloop
  endfacet
  facet normal 0 0 -1
    outer loop
      vertex 30 0 0
      vertex 0 30 0
      vertex 30 30 0
    endloop
  endfacet
  facet normal 0 1 0
    outer loop
      vertex 27.5 30 6.25
      vertex 30 30 0
      vertex 2.5 30 6.25
    endloop
  endfacet
  facet normal 0 1 0
    outer loop
      vertex 0 30 0
      vertex 0 30 30.25
      vertex 2.5 30 6.25
    endloop
  endfacet
  facet normal 0 1 0
    outer loop
      vertex 0 30 0
      vertex 2.5 30 6.25
      vertex 30 30 0
    endloop
  endfacet
  facet normal 0 1 0
    outer loop
      vertex 30 30 0
      vertex 27.5 30 6.25
      vertex 27.5 30 30.25
    endloop
  endfacet
  facet normal 0 1 0
    outer loop
      vertex 30 30 0
      vertex 27.5 30 30.25
      vertex 30 30 30.25
    endloop
  endfacet
  facet normal 0 1 0
    outer loop
      vertex 2.5 30 6.25
      vertex 0 30 30.25
      vertex 2.5 30 30.25
    endloop
  endfacet
  facet normal 0 0 1
    outer loop
      vertex 0 30 30.25
      vertex 0 27.5 30.25
      vertex 2.5 27.5 30.25
    endloop
  endfacet
  facet normal 0 0 1
    outer loop
      vertex 2.5 30 30.25
      vertex 0 30 30.25
      vertex 2.5 27.5 30.25
    endloop
  endfacet
  facet normal 0 -1 0
    outer loop
      vertex 0 27.5 30.25
      vertex 0 27.5 6.25
      vertex 2.5 27.5 6.25
    endloop
  endfacet
  facet normal 0 -1 0
    outer loop
      vertex 2.5 27.5 30.25
      vertex 0 27.5 30.25
      vertex 2.5 27.5 6.25
    endloop
  endfacet
  facet normal 0 0 1
    outer loop
      vertex 27.5 2.5 6.25
      vertex 30 2.5 6.25
      vertex 0 27.5 6.25
    endloop
  endfacet
  facet normal 0 0 1
    outer loop
      vertex 0 27.5 6.25
      vertex 0 2.5 6.25
      vertex 2.5 2.5 6.25
    endloop
  endfacet
  facet normal 0 0 1
    outer loop
      vertex 27.5 0 6.25
      vertex 0 27.5 6.25
      vertex 2.5 2.5 6.25
    endloop
  endfacet
  facet normal 0 0 1
    outer loop
      vertex 2.5 0 6.25
      vertex 27.5 0 6.25
      vertex 2.5 2.5 6.25
    endloop
  endfacet
  facet normal 0 0 1
    outer loop
      vertex 27.5 0 6.25
      vertex 27.5 2.5 6.25
      vertex 0 27.5 6.25
    endloop
  endfacet
  facet normal 0 0 1
    outer loop
      vertex 30 2.5 6.25
      vertex 27.5 27.5 6.25
      vertex 2.5 27.5 6.25
    endloop
  endfacet
  facet normal 0 0 1
    outer loop
      vertex 30 2.5 6.25
      vertex 30 27.5 6.25
      vertex 27.5 27.5 6.25
    endloop
  endfacet
  facet normal 0 0 1
    outer loop
      vertex 30 2.5 6.25
      vertex 2.5 27.5 6.25
      vertex 0 27.5 6.25
    endloop
  endfacet
  facet normal 0 0 1
    outer loop
      vertex 27.5 27.5 6.25
      vertex 27.5 30 6.25
      vertex 2.5 27.5 6.25
    endloop
  endfacet
  facet normal 0 0 1
    outer loop
      vertex 2.5 30 6.25
      vertex 2.5 27.5 6.25
      vertex 27.5 30 6.25
    endloop
  endfacet
  facet normal 0 1 0
    outer loop
      vertex 0 2.5 6.25
      vertex 0 2.5 30.25
      vertex 2.5 2.5 6.25
    endloop
  endfacet
  facet normal 0 1 0
    outer loop
      vertex 2.5 2.5 6.25
      vertex 0 2.5 30.25
      vertex 2.5 2.5 30.25
    endloop
  endfacet
  facet normal 0 0 1
    outer loop
      vertex 0 2.5 30.25
      vertex 0 0 30.25
      vertex 2.5 0 30.25
    endloop
  endfacet
  facet normal 0 0 1
    outer loop
      vertex 2.5 2.5 30.25
      vertex 0 2.5 30.25
      vertex 2.5 0 30.25
    endloop
  endfacet
  facet normal 1 0 0
    outer loop
      vertex 2.5 0 30.25
      vertex 2.5 0 6.25
      vertex 2.5 2.5 6.25
    endloop
  endfacet
  facet normal 1 0 0
    outer loop
      vertex 2.5 2.5 30.25
      vertex 2.5 0 30.25
      vertex 2.5 2.5 6.25
    endloop
  endfacet
  facet normal -1 0 0
    outer loop
      vertex 27.5 0 6.25
      vertex 27.5 0 30.25
      vertex 27.5 2.5 6.25
    endloop
  endfacet
  facet normal -1 0 0
    outer loop
      vertex 27.5 2.5 6.25
      vertex 27.5 0 30.25
      vertex 27.5 2.5 30.25
    endloop
  endfacet
  facet normal 0 0 1
    outer loop
      vertex 27.5 2.5 30.25
      vertex 27.5 0 30.25
      vertex 30 0 30.25
    endloop
  endfacet
  facet normal 0 0 1
    outer loop
      vertex 30 2.5 30.25
      vertex 27.5 2.5 30.25
      vertex 30 0 30.25
    endloop
  endfacet
  facet normal 1 0 0
    outer loop
      vertex 30 2.5 6.25
      vertex 30 0 0
      vertex 30 30 0
    endloop
  endfacet
  facet normal 1 0 0
    outer loop
      vertex 30 2.5 6.25
      vertex 30 2.5 30.25
      vertex 30 0 30.25
    endloop
  endfacet
  facet normal 1 0 0
    outer loop
      vertex 30 30 30.25
      vertex 30 27.5 30.25
      vertex 30 30 0
    endloop
  endfacet
  facet normal 1 0 0
    outer loop
      vertex 30 27.5 30.25
      vertex 30 27.5 6.25
      vertex 30 30 0
    endloop
  endfacet
  facet normal 1 0 0
    outer loop
      vertex 30 0 30.25
      vertex 30 0 0
      vertex 30 2.5 6.25
    endloop
  endfacet
  facet normal 1 0 0
    outer loop
      vertex 30 27.5 6.25
      vertex 30 2.5 6.25
      vertex 30 30 0
    endloop
  endfacet
  facet normal 0 0 1
    outer loop
      vertex 27.5 30 30.25
      vertex 27.5 27.5 30.25
      vertex 30 27.5 30.25
    endloop
  endfacet
  facet normal 0 0 1
    outer loop
      vertex 30 30 30.25
      vertex 27.5 30 30.25
      vertex 30 27.5 30.25
    endloop
  endfacet
  facet normal -1 0 0
    outer loop
      vertex 27.5 27.5 6.25
      vertex 27.5 27.5 30.25
      vertex 27.5 30 6.25
    endloop
  endfacet
  facet normal -1 0 0
    outer loop
      vertex 27.5 30 6.25
      vertex 27.5 27.5 30.25
      vertex 27.5 30 30.25
    endloop
  endfacet
  facet normal 1 0 0
    outer loop
      vertex 2.5 27.5 30.25
      vertex 2.5 27.5 6.25
      vertex 2.5 30 6.25
    endloop
  endfacet
  facet normal 1 0 0
    outer loop
      vertex 2.5 30 30.25
      vertex 2.5 27.5 30.25
      vertex 2.5 30 6.25
    endloop
  endfacet
  facet normal 0 -1 0
    outer loop
      vertex 27.5 27.5 30.25
      vertex 27.5 27.5 6.25
      vertex 30 27.5 6.25
    endloop
  endfacet
  facet normal 0 -1 0
    outer loop
      vertex 30 27.5 30.25
      vertex 27.5 27.5 30.25
      vertex 30 27.5 6.25
    endloop
  endfacet
  facet normal 0 1 0
    outer loop
      vertex 27.5 2.5 6.25
      vertex 27.5 2.5 30.25
      vertex 30 2.5 6.25
    endloop
  endfacet
  facet normal 0 1 0
    outer loop
      vertex 30 2.5 6.25
      vertex 27.5 2.5 30.25
      vertex 30 2.5 30.25
    endloop
  endfacet
endsolid OpenSCAD_Model
