solid OpenSCAD_Model
  facet normal -1 0 0
    outer loop
      vertex 0 0 0
      vertex 0 0 4
      vertex 0 7 0
    endloop
  endfacet
  facet normal -1 0 0
    outer loop
      vertex 0 2.5 3
      vertex 0 0 4
      vertex 0 2.5 4
    endloop
  endfacet
  facet normal -1 0 0
    outer loop
      vertex 0 7 0
      vertex 0 0 4
      vertex 0 2.5 3
    endloop
  endfacet
  facet normal -1 0 0
    outer loop
      vertex 0 7 0
      vertex 0 4.5 3
      vertex 0 4.5 4
    endloop
  endfacet
  facet normal -1 0 0
    outer loop
      vertex 0 7 0
      vertex 0 4.5 4
      vertex 0 7 4
    endloop
  endfacet
  facet normal -1 0 0
    outer loop
      vertex 0 4.5 3
      vertex 0 7 0
      vertex 0 2.5 3
    endloop
  endfacet
  facet normal 0 -1 0
    outer loop
      vertex 0 0 4
      vertex 0 0 0
      vertex 7 0 0
    endloop
  endfacet
  facet normal 0 -1 0
    outer loop
      vertex 7 0 4
      vertex 0 0 4
      vertex 7 0 0
    endloop
  endfacet
  facet normal 0 0 -1
    outer loop
      vertex 0 0 0
      vertex 0 7 0
      vertex 7 0 0
    endloop
  endfacet
  facet normal 0 0 -1
    outer loop
      vertex 7 0 0
      vertex 0 7 0
      vertex 7 7 0
    endloop
  endfacet
  facet normal 0 1 0
    outer loop
      vertex 0 7 0
      vertex 0 7 4
      vertex 7 7 0
    endloop
  endfacet
  facet normal 0 1 0
    outer loop
      vertex 7 7 0
      vertex 0 7 4
      vertex 7 7 4
    endloop
  endfacet
  facet normal 0 0 1
    outer loop
      vertex 0 7 4
      vertex 0 4.5 4
      vertex 7 4.5 4
    endloop
  endfacet
  facet normal 0 0 1
    outer loop
      vertex 7 7 4
      vertex 0 7 4
      vertex 7 4.5 4
    endloop
  endfacet
  facet normal 0 -1 0
    outer loop
      vertex 0 4.5 4
      vertex 0 4.5 3
      vertex 7 4.5 3
    endloop
  endfacet
  facet normal 0 -1 0
    outer loop
      vertex 7 4.5 4
      vertex 0 4.5 4
      vertex 7 4.5 3
    endloop
  endfacet
  facet normal 0 0 1
    outer loop
      vertex 0 4.5 3
      vertex 0 2.5 3
      vertex 7 2.5 3
    endloop
  endfacet
  facet normal 0 0 1
    outer loop
      vertex 7 4.5 3
      vertex 0 4.5 3
      vertex 7 2.5 3
    endloop
  endfacet
  facet normal 0 1 0
    outer loop
      vertex 0 2.5 3
      vertex 0 2.5 4
      vertex 7 2.5 3
    endloop
  endfacet
  facet normal 0 1 0
    outer loop
      vertex 7 2.5 3
      vertex 0 2.5 4
      vertex 7 2.5 4
    endloop
  endfacet
  facet normal 0 0 1
    outer loop
      vertex 0 2.5 4
      vertex 0 0 4
      vertex 7 0 4
    endloop
  endfacet
  facet normal 0 0 1
    outer loop
      vertex 7 2.5 4
      vertex 0 2.5 4
      vertex 7 0 4
    endloop
  endfacet
  facet normal 1 0 0
    outer loop
      vertex 7 0 4
      vertex 7 0 0
      vertex 7 7 0
    endloop
  endfacet
  facet normal 1 0 0
    outer loop
      vertex 7 2.5 3
      vertex 7 0 4
      vertex 7 7 0
    endloop
  endfacet
  facet normal 1 0 0
    outer loop
      vertex 7 7 4
      vertex 7 4.5 4
      vertex 7 7 0
    endloop
  endfacet
  facet normal 1 0 0
    outer loop
      vertex 7 4.5 4
      vertex 7 4.5 3
      vertex 7 7 0
    endloop
  endfacet
  facet normal 1 0 0
    outer loop
      vertex 7 4.5 3
      vertex 7 2.5 3
      vertex 7 7 0
    endloop
  endfacet
  facet normal 1 0 0
    outer loop
      vertex 7 2.5 3
      vertex 7 2.5 4
      vertex 7 0 4
    endloop
  endfacet
endsolid OpenSCAD_Model
