solid OpenSCAD_Model
  facet normal -1 0 0
    outer loop
      vertex 0 0 0
      vertex 0 0 21.5
      vertex 0 23 0
    endloop
  endfacet
  facet normal -1 0 0
    outer loop
      vertex 0 23 0
      vertex 0 0 21.5
      vertex 0 23 21.5
    endloop
  endfacet
  facet normal 0 -1 0
    outer loop
      vertex 0 0 21.5
      vertex 0 0 0
      vertex 23 0 0
    endloop
  endfacet
  facet normal 0 -1 0
    outer loop
      vertex 23 0 21.5
      vertex 0 0 21.5
      vertex 23 0 0
    endloop
  endfacet
  facet normal 0 0 -1
    outer loop
      vertex 0 0 0
      vertex 0 23 0
      vertex 23 0 0
    endloop
  endfacet
  facet normal 0 0 -1
    outer loop
      vertex 23 0 0
      vertex 0 23 0
      vertex 23 23 0
    endloop
  endfacet
  facet normal 0 1 0
    outer loop
      vertex 0 23 0
      vertex 0 23 21.5
      vertex 23 23 0
    endloop
  endfacet
  facet normal 0 1 0
    outer loop
      vertex 23 23 0
      vertex 0 23 21.5
      vertex 23 23 21.5
    endloop
  endfacet
  facet normal 0 0 1
    outer loop
      vertex 2.5 2.5 21.5
      vertex 0 0 21.5
      vertex 23 0 21.5
    endloop
  endfacet
  facet normal 0 0 1
    outer loop
      vertex 2.5 20.5 21.5
      vertex 0 23 21.5
      vertex 2.5 2.5 21.5
    endloop
  endfacet
  facet normal 0 0 1
    outer loop
      vertex 20.5 2.5 21.5
      vertex 2.5 2.5 21.5
      vertex 23 0 21.5
    endloop
  endfacet
  facet normal 0 0 1
    outer loop
      vertex 0 23 21.5
      vertex 0 0 21.5
      vertex 2.5 2.5 21.5
    endloop
  endfacet
  facet normal 0 0 1
    outer loop
      vertex 23 23 21.5
      vertex 0 23 21.5
      vertex 2.5 20.5 21.5
    endloop
  endfacet
  facet normal 0 0 1
    outer loop
      vertex 23 23 21.5
      vertex 20.5 20.5 21.5
      vertex 23 0 21.5
    endloop
  endfacet
  facet normal 0 0 1
    outer loop
      vertex 23 23 21.5
      vertex 2.5 20.5 21.5
      vertex 20.5 20.5 21.5
    endloop
  endfacet
  facet normal 0 0 1
    outer loop
      vertex 20.5 20.5 21.5
      vertex 20.5 2.5 21.5
      vertex 23 0 21.5
    endloop
  endfacet
  facet normal 1 0 0
    outer loop
      vertex 23 0 21.5
      vertex 23 0 0
      vertex 23 23 0
    endloop
  endfacet
  facet normal 1 0 0
    outer loop
      vertex 23 23 21.5
      vertex 23 0 21.5
      vertex 23 23 0
    endloop
  endfacet
  facet normal 1 0 0
    outer loop
      vertex 2.5 2.5 21.5
      vertex 2.5 2.5 4.5
      vertex 2.5 20.5 4.5
    endloop
  endfacet
  facet normal 1 0 0
    outer loop
      vertex 2.5 20.5 21.5
      vertex 2.5 2.5 21.5
      vertex 2.5 20.5 4.5
    endloop
  endfacet
  facet normal 0 1 0
    outer loop
      vertex 2.5 2.5 4.5
      vertex 2.5 2.5 21.5
      vertex 20.5 2.5 4.5
    endloop
  endfacet
  facet normal 0 1 0
    outer loop
      vertex 20.5 2.5 4.5
      vertex 2.5 2.5 21.5
      vertex 20.5 2.5 21.5
    endloop
  endfacet
  facet normal -1 0 0
    outer loop
      vertex 20.5 2.5 4.5
      vertex 20.5 2.5 21.5
      vertex 20.5 20.5 4.5
    endloop
  endfacet
  facet normal -1 0 0
    outer loop
      vertex 20.5 20.5 4.5
      vertex 20.5 2.5 21.5
      vertex 20.5 20.5 21.5
    endloop
  endfacet
  facet normal 0 -1 0
    outer loop
      vertex 2.5 20.5 21.5
      vertex 2.5 20.5 4.5
      vertex 20.5 20.5 4.5
    endloop
  endfacet
  facet normal 0 -1 0
    outer loop
      vertex 20.5 20.5 21.5
      vertex 2.5 20.5 21.5
      vertex 20.5 20.5 4.5
    endloop
  endfacet
  facet normal 0 0 1
    outer loop
      vertex 2.5 20.5 4.5
      vertex 2.5 2.5 4.5
      vertex 20.5 2.5 4.5
    endloop
  endfacet
  facet normal 0 0 1
    outer loop
      vertex 20.5 20.5 4.5
      vertex 2.5 20.5 4.5
      vertex 20.5 2.5 4.5
    endloop
  endfacet
endsolid OpenSCAD_Model
