solid OpenSCAD_Model
  facet normal -1 0 0
    outer loop
      vertex 0 16.5 3.5
      vertex 0 19 0
      vertex 0 2.5 3.5
    endloop
  endfacet
  facet normal -1 0 0
    outer loop
      vertex 0 0 0
      vertex 0 0 16.5
      vertex 0 2.5 3.5
    endloop
  endfacet
  facet normal -1 0 0
    outer loop
      vertex 0 0 0
      vertex 0 2.5 3.5
      vertex 0 19 0
    endloop
  endfacet
  facet normal -1 0 0
    outer loop
      vertex 0 19 0
      vertex 0 16.5 3.5
      vertex 0 16.5 16.5
    endloop
  endfacet
  facet normal -1 0 0
    outer loop
      vertex 0 19 0
      vertex 0 16.5 16.5
      vertex 0 19 16.5
    endloop
  endfacet
  facet normal -1 0 0
    outer loop
      vertex 0 2.5 3.5
      vertex 0 0 16.5
      vertex 0 2.5 16.5
    endloop
  endfacet
  facet normal 0 -1 0
    outer loop
      vertex 2.5 0 3.5
      vertex 0 0 0
      vertex 19 0 0
    endloop
  endfacet
  facet normal 0 -1 0
    outer loop
      vertex 2.5 0 3.5
      vertex 2.5 0 16.5
      vertex 0 0 16.5
    endloop
  endfacet
  facet normal 0 -1 0
    outer loop
      vertex 19 0 16.5
      vertex 16.5 0 16.5
      vertex 19 0 0
    endloop
  endfacet
  facet normal 0 -1 0
    outer loop
      vertex 16.5 0 16.5
      vertex 16.5 0 3.5
      vertex 19 0 0
    endloop
  endfacet
  facet normal 0 -1 0
    outer loop
      vertex 0 0 16.5
      vertex 0 0 0
      vertex 2.5 0 3.5
    endloop
  endfacet
  facet normal 0 -1 0
    outer loop
      vertex 16.5 0 3.5
      vertex 2.5 0 3.5
      vertex 19 0 0
    endloop
  endfacet
  facet normal 0 0 -1
    outer loop
      vertex 0 0 0
      vertex 0 19 0
      vertex 19 0 0
    endloop
  endfacet
  facet normal 0 0 -1
    outer loop
      vertex 19 0 0
      vertex 0 19 0
      vertex 19 19 0
    endloop
  endfacet
  facet normal 0 1 0
    outer loop
      vertex 0 19 0
      vertex 0 19 16.5
      vertex 19 19 0
    endloop
  endfacet
  facet normal 0 1 0
    outer loop
      vertex 19 19 0
      vertex 0 19 16.5
      vertex 19 19 16.5
    endloop
  endfacet
  facet normal 0 0 1
    outer loop
      vertex 0 19 16.5
      vertex 0 16.5 16.5
      vertex 16.5 16.5 16.5
    endloop
  endfacet
  facet normal 0 0 1
    outer loop
      vertex 19 19 16.5
      vertex 0 19 16.5
      vertex 16.5 16.5 16.5
    endloop
  endfacet
  facet normal 0 0 1
    outer loop
      vertex 16.5 0 16.5
      vertex 19 0 16.5
      vertex 16.5 16.5 16.5
    endloop
  endfacet
  facet normal 0 0 1
    outer loop
      vertex 19 0 16.5
      vertex 19 19 16.5
      vertex 16.5 16.5 16.5
    endloop
  endfacet
  facet normal 0 -1 0
    outer loop
      vertex 0 16.5 16.5
      vertex 0 16.5 3.5
      vertex 16.5 16.5 3.5
    endloop
  endfacet
  facet normal 0 -1 0
    outer loop
      vertex 16.5 16.5 16.5
      vertex 0 16.5 16.5
      vertex 16.5 16.5 3.5
    endloop
  endfacet
  facet normal 0 0 1
    outer loop
      vertex 0 16.5 3.5
      vertex 0 2.5 3.5
      vertex 2.5 2.5 3.5
    endloop
  endfacet
  facet normal 0 0 1
    outer loop
      vertex 16.5 0 3.5
      vertex 0 16.5 3.5
      vertex 2.5 2.5 3.5
    endloop
  endfacet
  facet normal 0 0 1
    outer loop
      vertex 2.5 0 3.5
      vertex 16.5 0 3.5
      vertex 2.5 2.5 3.5
    endloop
  endfacet
  facet normal 0 0 1
    outer loop
      vertex 16.5 0 3.5
      vertex 16.5 16.5 3.5
      vertex 0 16.5 3.5
    endloop
  endfacet
  facet normal 0 1 0
    outer loop
      vertex 0 2.5 3.5
      vertex 0 2.5 16.5
      vertex 2.5 2.5 3.5
    endloop
  endfacet
  facet normal 0 1 0
    outer loop
      vertex 2.5 2.5 3.5
      vertex 0 2.5 16.5
      vertex 2.5 2.5 16.5
    endloop
  endfacet
  facet normal 0 0 1
    outer loop
      vertex 0 2.5 16.5
      vertex 0 0 16.5
      vertex 2.5 0 16.5
    endloop
  endfacet
  facet normal 0 0 1
    outer loop
      vertex 2.5 2.5 16.5
      vertex 0 2.5 16.5
      vertex 2.5 0 16.5
    endloop
  endfacet
  facet normal 1 0 0
    outer loop
      vertex 2.5 0 16.5
      vertex 2.5 0 3.5
      vertex 2.5 2.5 3.5
    endloop
  endfacet
  facet normal 1 0 0
    outer loop
      vertex 2.5 2.5 16.5
      vertex 2.5 0 16.5
      vertex 2.5 2.5 3.5
    endloop
  endfacet
  facet normal -1 0 0
    outer loop
      vertex 16.5 0 3.5
      vertex 16.5 0 16.5
      vertex 16.5 16.5 3.5
    endloop
  endfacet
  facet normal -1 0 0
    outer loop
      vertex 16.5 16.5 3.5
      vertex 16.5 0 16.5
      vertex 16.5 16.5 16.5
    endloop
  endfacet
  facet normal 1 0 0
    outer loop
      vertex 19 0 16.5
      vertex 19 0 0
      vertex 19 19 0
    endloop
  endfacet
  facet normal 1 0 0
    outer loop
      vertex 19 19 16.5
      vertex 19 0 16.5
      vertex 19 19 0
    endloop
  endfacet
endsolid OpenSCAD_Model
