solid OpenSCAD_Model
  facet normal -1 0 0
    outer loop
      vertex 0 0 0
      vertex 0 0 11
      vertex 0 14 0
    endloop
  endfacet
  facet normal -1 0 0
    outer loop
      vertex 0 14 0
      vertex 0 0 11
      vertex 0 14 11
    endloop
  endfacet
  facet normal 0 -1 0
    outer loop
      vertex 0 0 11
      vertex 0 0 0
      vertex 14 0 0
    endloop
  endfacet
  facet normal 0 -1 0
    outer loop
      vertex 14 0 11
      vertex 0 0 11
      vertex 14 0 0
    endloop
  endfacet
  facet normal 0 0 -1
    outer loop
      vertex 0 0 0
      vertex 0 14 0
      vertex 14 0 0
    endloop
  endfacet
  facet normal 0 0 -1
    outer loop
      vertex 14 0 0
      vertex 0 14 0
      vertex 14 14 0
    endloop
  endfacet
  facet normal 0 1 0
    outer loop
      vertex 0 14 0
      vertex 0 14 11
      vertex 14 14 0
    endloop
  endfacet
  facet normal 0 1 0
    outer loop
      vertex 14 14 0
      vertex 0 14 11
      vertex 14 14 11
    endloop
  endfacet
  facet normal 0 0 1
    outer loop
      vertex 2.5 2.5 11
      vertex 0 0 11
      vertex 14 0 11
    endloop
  endfacet
  facet normal 0 0 1
    outer loop
      vertex 2.5 11.5 11
      vertex 0 14 11
      vertex 2.5 2.5 11
    endloop
  endfacet
  facet normal 0 0 1
    outer loop
      vertex 0 14 11
      vertex 0 0 11
      vertex 2.5 2.5 11
    endloop
  endfacet
  facet normal 0 0 1
    outer loop
      vertex 2.5 11.5 11
      vertex 14 11.5 11
      vertex 0 14 11
    endloop
  endfacet
  facet normal 0 0 1
    outer loop
      vertex 14 14 11
      vertex 0 14 11
      vertex 14 11.5 11
    endloop
  endfacet
  facet normal 0 0 1
    outer loop
      vertex 14 2.5 11
      vertex 2.5 2.5 11
      vertex 14 0 11
    endloop
  endfacet
  facet normal 1 0 0
    outer loop
      vertex 14 2.5 3
      vertex 14 0 0
      vertex 14 14 0
    endloop
  endfacet
  facet normal 1 0 0
    outer loop
      vertex 14 2.5 3
      vertex 14 2.5 11
      vertex 14 0 11
    endloop
  endfacet
  facet normal 1 0 0
    outer loop
      vertex 14 14 11
      vertex 14 11.5 11
      vertex 14 14 0
    endloop
  endfacet
  facet normal 1 0 0
    outer loop
      vertex 14 11.5 11
      vertex 14 11.5 3
      vertex 14 14 0
    endloop
  endfacet
  facet normal 1 0 0
    outer loop
      vertex 14 0 11
      vertex 14 0 0
      vertex 14 2.5 3
    endloop
  endfacet
  facet normal 1 0 0
    outer loop
      vertex 14 11.5 3
      vertex 14 2.5 3
      vertex 14 14 0
    endloop
  endfacet
  facet normal 0 -1 0
    outer loop
      vertex 2.5 11.5 11
      vertex 2.5 11.5 3
      vertex 14 11.5 3
    endloop
  endfacet
  facet normal 0 -1 0
    outer loop
      vertex 14 11.5 11
      vertex 2.5 11.5 11
      vertex 14 11.5 3
    endloop
  endfacet
  facet normal 1 0 0
    outer loop
      vertex 2.5 2.5 11
      vertex 2.5 2.5 3
      vertex 2.5 11.5 3
    endloop
  endfacet
  facet normal 1 0 0
    outer loop
      vertex 2.5 11.5 11
      vertex 2.5 2.5 11
      vertex 2.5 11.5 3
    endloop
  endfacet
  facet normal 0 1 0
    outer loop
      vertex 2.5 2.5 3
      vertex 2.5 2.5 11
      vertex 14 2.5 3
    endloop
  endfacet
  facet normal 0 1 0
    outer loop
      vertex 14 2.5 3
      vertex 2.5 2.5 11
      vertex 14 2.5 11
    endloop
  endfacet
  facet normal 0 0 1
    outer loop
      vertex 2.5 11.5 3
      vertex 2.5 2.5 3
      vertex 14 2.5 3
    endloop
  endfacet
  facet normal 0 0 1
    outer loop
      vertex 14 11.5 3
      vertex 2.5 11.5 3
      vertex 14 2.5 3
    endloop
  endfacet
endsolid OpenSCAD_Model
