solid OpenSCAD_Model
  facet normal -1 0 0
    outer loop
      vertex 0 25.5 5.75
      vertex 0 28 0
      vertex 0 2.5 5.75
    endloop
  endfacet
  facet normal -1 0 0
    outer loop
      vertex 0 0 0
      vertex 0 0 27.75
      vertex 0 2.5 5.75
    endloop
  endfacet
  facet normal -1 0 0
    outer loop
      vertex 0 0 0
      vertex 0 2.5 5.75
      vertex 0 28 0
    endloop
  endfacet
  facet normal -1 0 0
    outer loop
      vertex 0 28 0
      vertex 0 25.5 5.75
      vertex 0 25.5 27.75
    endloop
  endfacet
  facet normal -1 0 0
    outer loop
      vertex 0 28 0
      vertex 0 25.5 27.75
      vertex 0 28 27.75
    endloop
  endfacet
  facet normal -1 0 0
    outer loop
      vertex 0 2.5 5.75
      vertex 0 0 27.75
      vertex 0 2.5 27.75
    endloop
  endfacet
  facet normal 0 -1 0
    outer loop
      vertex 0 0 27.75
      vertex 0 0 0
      vertex 28 0 0
    endloop
  endfacet
  facet normal 0 -1 0
    outer loop
      vertex 28 0 27.75
      vertex 0 0 27.75
      vertex 28 0 0
    endloop
  endfacet
  facet normal 0 0 -1
    outer loop
      vertex 0 0 0
      vertex 0 28 0
      vertex 28 0 0
    endloop
  endfacet
  facet normal 0 0 -1
    outer loop
      vertex 28 0 0
      vertex 0 28 0
      vertex 28 28 0
    endloop
  endfacet
  facet normal 0 1 0
    outer loop
      vertex 25.5 28 5.75
      vertex 28 28 0
      vertex 2.5 28 5.75
    endloop
  endfacet
  facet normal 0 1 0
    outer loop
      vertex 0 28 0
      vertex 0 28 27.75
      vertex 2.5 28 5.75
    endloop
  endfacet
  facet normal 0 1 0
    outer loop
      vertex 0 28 0
      vertex 2.5 28 5.75
      vertex 28 28 0
    endloop
  endfacet
  facet normal 0 1 0
    outer loop
      vertex 28 28 0
      vertex 25.5 28 5.75
      vertex 25.5 28 27.75
    endloop
  endfacet
  facet normal 0 1 0
    outer loop
      vertex 28 28 0
      vertex 25.5 28 27.75
      vertex 28 28 27.75
    endloop
  endfacet
  facet normal 0 1 0
    outer loop
      vertex 2.5 28 5.75
      vertex 0 28 27.75
      vertex 2.5 28 27.75
    endloop
  endfacet
  facet normal 0 0 1
    outer loop
      vertex 0 28 27.75
      vertex 0 25.5 27.75
      vertex 2.5 25.5 27.75
    endloop
  endfacet
  facet normal 0 0 1
    outer loop
      vertex 2.5 28 27.75
      vertex 0 28 27.75
      vertex 2.5 25.5 27.75
    endloop
  endfacet
  facet normal 0 -1 0
    outer loop
      vertex 0 25.5 27.75
      vertex 0 25.5 5.75
      vertex 2.5 25.5 5.75
    endloop
  endfacet
  facet normal 0 -1 0
    outer loop
      vertex 2.5 25.5 27.75
      vertex 0 25.5 27.75
      vertex 2.5 25.5 5.75
    endloop
  endfacet
  facet normal 0 0 1
    outer loop
      vertex 0 25.5 5.75
      vertex 0 2.5 5.75
      vertex 28 2.5 5.75
    endloop
  endfacet
  facet normal 0 0 1
    outer loop
      vertex 2.5 25.5 5.75
      vertex 0 25.5 5.75
      vertex 28 2.5 5.75
    endloop
  endfacet
  facet normal 0 0 1
    outer loop
      vertex 25.5 25.5 5.75
      vertex 2.5 25.5 5.75
      vertex 28 2.5 5.75
    endloop
  endfacet
  facet normal 0 0 1
    outer loop
      vertex 28 25.5 5.75
      vertex 25.5 25.5 5.75
      vertex 28 2.5 5.75
    endloop
  endfacet
  facet normal 0 0 1
    outer loop
      vertex 25.5 28 5.75
      vertex 2.5 25.5 5.75
      vertex 25.5 25.5 5.75
    endloop
  endfacet
  facet normal 0 0 1
    outer loop
      vertex 2.5 28 5.75
      vertex 2.5 25.5 5.75
      vertex 25.5 28 5.75
    endloop
  endfacet
  facet normal 0 1 0
    outer loop
      vertex 0 2.5 5.75
      vertex 0 2.5 27.75
      vertex 28 2.5 5.75
    endloop
  endfacet
  facet normal 0 1 0
    outer loop
      vertex 28 2.5 5.75
      vertex 0 2.5 27.75
      vertex 28 2.5 27.75
    endloop
  endfacet
  facet normal 0 0 1
    outer loop
      vertex 0 2.5 27.75
      vertex 0 0 27.75
      vertex 28 0 27.75
    endloop
  endfacet
  facet normal 0 0 1
    outer loop
      vertex 28 2.5 27.75
      vertex 0 2.5 27.75
      vertex 28 0 27.75
    endloop
  endfacet
  facet normal 1 0 0
    outer loop
      vertex 28 2.5 5.75
      vertex 28 0 0
      vertex 28 28 0
    endloop
  endfacet
  facet normal 1 0 0
    outer loop
      vertex 28 2.5 5.75
      vertex 28 2.5 27.75
      vertex 28 0 27.75
    endloop
  endfacet
  facet normal 1 0 0
    outer loop
      vertex 28 28 27.75
      vertex 28 25.5 27.75
      vertex 28 28 0
    endloop
  endfacet
  facet normal 1 0 0
    outer loop
      vertex 28 25.5 27.75
      vertex 28 25.5 5.75
      vertex 28 28 0
    endloop
  endfacet
  facet normal 1 0 0
    outer loop
      vertex 28 0 27.75
      vertex 28 0 0
      vertex 28 2.5 5.75
    endloop
  endfacet
  facet normal 1 0 0
    outer loop
      vertex 28 25.5 5.75
      vertex 28 2.5 5.75
      vertex 28 28 0
    endloop
  endfacet
  facet normal 0 0 1
    outer loop
      vertex 25.5 28 27.75
      vertex 25.5 25.5 27.75
      vertex 28 25.5 27.75
    endloop
  endfacet
  facet normal 0 0 1
    outer loop
      vertex 28 28 27.75
      vertex 25.5 28 27.75
      vertex 28 25.5 27.75
    endloop
  endfacet
  facet normal -1 0 0
    outer loop
      vertex 25.5 25.5 5.75
      vertex 25.5 25.5 27.75
      vertex 25.5 28 5.75
    endloop
  endfacet
  facet normal -1 0 0
    outer loop
      vertex 25.5 28 5.75
      vertex 25.5 25.5 27.75
      vertex 25.5 28 27.75
    endloop
  endfacet
  facet normal 1 0 0
    outer loop
      vertex 2.5 25.5 27.75
      vertex 2.5 25.5 5.75
      vertex 2.5 28 5.75
    endloop
  endfacet
  facet normal 1 0 0
    outer loop
      vertex 2.5 28 27.75
      vertex 2.5 25.5 27.75
      vertex 2.5 28 5.75
    endloop
  endfacet
  facet normal 0 -1 0
    outer loop
      vertex 25.5 25.5 27.75
      vertex 25.5 25.5 5.75
      vertex 28 25.5 5.75
    endloop
  endfacet
  facet normal 0 -1 0
    outer loop
      vertex 28 25.5 27.75
      vertex 25.5 25.5 27.75
      vertex 28 25.5 5.75
    endloop
  endfacet
endsolid OpenSCAD_Model
