solid OpenSCAD_Model
  facet normal -1 0 0
    outer loop
      vertex 0 6.5 3
      vertex 0 9 0
      vertex 0 2.5 3
    endloop
  endfacet
  facet normal -1 0 0
    outer loop
      vertex 0 0 0
      vertex 0 0 6
      vertex 0 2.5 3
    endloop
  endfacet
  facet normal -1 0 0
    outer loop
      vertex 0 0 0
      vertex 0 2.5 3
      vertex 0 9 0
    endloop
  endfacet
  facet normal -1 0 0
    outer loop
      vertex 0 9 0
      vertex 0 6.5 3
      vertex 0 6.5 6
    endloop
  endfacet
  facet normal -1 0 0
    outer loop
      vertex 0 9 0
      vertex 0 6.5 6
      vertex 0 9 6
    endloop
  endfacet
  facet normal -1 0 0
    outer loop
      vertex 0 2.5 3
      vertex 0 0 6
      vertex 0 2.5 6
    endloop
  endfacet
  facet normal 0 -1 0
    outer loop
      vertex 0 0 6
      vertex 0 0 0
      vertex 9 0 0
    endloop
  endfacet
  facet normal 0 -1 0
    outer loop
      vertex 9 0 6
      vertex 0 0 6
      vertex 9 0 0
    endloop
  endfacet
  facet normal 0 0 -1
    outer loop
      vertex 0 0 0
      vertex 0 9 0
      vertex 9 0 0
    endloop
  endfacet
  facet normal 0 0 -1
    outer loop
      vertex 9 0 0
      vertex 0 9 0
      vertex 9 9 0
    endloop
  endfacet
  facet normal 0 1 0
    outer loop
      vertex 6.5 9 3
      vertex 9 9 0
      vertex 2.5 9 3
    endloop
  endfacet
  facet normal 0 1 0
    outer loop
      vertex 0 9 0
      vertex 0 9 6
      vertex 2.5 9 3
    endloop
  endfacet
  facet normal 0 1 0
    outer loop
      vertex 0 9 0
      vertex 2.5 9 3
      vertex 9 9 0
    endloop
  endfacet
  facet normal 0 1 0
    outer loop
      vertex 9 9 0
      vertex 6.5 9 3
      vertex 6.5 9 6
    endloop
  endfacet
  facet normal 0 1 0
    outer loop
      vertex 9 9 0
      vertex 6.5 9 6
      vertex 9 9 6
    endloop
  endfacet
  facet normal 0 1 0
    outer loop
      vertex 2.5 9 3
      vertex 0 9 6
      vertex 2.5 9 6
    endloop
  endfacet
  facet normal 0 0 1
    outer loop
      vertex 0 9 6
      vertex 0 6.5 6
      vertex 2.5 6.5 6
    endloop
  endfacet
  facet normal 0 0 1
    outer loop
      vertex 2.5 9 6
      vertex 0 9 6
      vertex 2.5 6.5 6
    endloop
  endfacet
  facet normal 0 -1 0
    outer loop
      vertex 0 6.5 6
      vertex 0 6.5 3
      vertex 2.5 6.5 3
    endloop
  endfacet
  facet normal 0 -1 0
    outer loop
      vertex 2.5 6.5 6
      vertex 0 6.5 6
      vertex 2.5 6.5 3
    endloop
  endfacet
  facet normal 0 0 1
    outer loop
      vertex 0 6.5 3
      vertex 0 2.5 3
      vertex 6.5 2.5 3
    endloop
  endfacet
  facet normal 0 0 1
    outer loop
      vertex 2.5 6.5 3
      vertex 0 6.5 3
      vertex 6.5 2.5 3
    endloop
  endfacet
  facet normal 0 0 1
    outer loop
      vertex 6.5 9 3
      vertex 2.5 6.5 3
      vertex 6.5 2.5 3
    endloop
  endfacet
  facet normal 0 0 1
    outer loop
      vertex 2.5 9 3
      vertex 2.5 6.5 3
      vertex 6.5 9 3
    endloop
  endfacet
  facet normal 0 1 0
    outer loop
      vertex 0 2.5 3
      vertex 0 2.5 6
      vertex 6.5 2.5 3
    endloop
  endfacet
  facet normal 0 1 0
    outer loop
      vertex 6.5 2.5 3
      vertex 0 2.5 6
      vertex 6.5 2.5 6
    endloop
  endfacet
  facet normal 0 0 1
    outer loop
      vertex 0 2.5 6
      vertex 0 0 6
      vertex 9 0 6
    endloop
  endfacet
  facet normal 0 0 1
    outer loop
      vertex 6.5 2.5 6
      vertex 0 2.5 6
      vertex 9 0 6
    endloop
  endfacet
  facet normal 0 0 1
    outer loop
      vertex 9 9 6
      vertex 6.5 2.5 6
      vertex 9 0 6
    endloop
  endfacet
  facet normal 0 0 1
    outer loop
      vertex 6.5 9 6
      vertex 6.5 2.5 6
      vertex 9 9 6
    endloop
  endfacet
  facet normal 1 0 0
    outer loop
      vertex 9 0 6
      vertex 9 0 0
      vertex 9 9 0
    endloop
  endfacet
  facet normal 1 0 0
    outer loop
      vertex 9 9 6
      vertex 9 0 6
      vertex 9 9 0
    endloop
  endfacet
  facet normal -1 0 0
    outer loop
      vertex 6.5 2.5 3
      vertex 6.5 2.5 6
      vertex 6.5 9 3
    endloop
  endfacet
  facet normal -1 0 0
    outer loop
      vertex 6.5 9 3
      vertex 6.5 2.5 6
      vertex 6.5 9 6
    endloop
  endfacet
  facet normal 1 0 0
    outer loop
      vertex 2.5 6.5 6
      vertex 2.5 6.5 3
      vertex 2.5 9 3
    endloop
  endfacet
  facet normal 1 0 0
    outer loop
      vertex 2.5 9 6
      vertex 2.5 6.5 6
      vertex 2.5 9 3
    endloop
  endfacet
endsolid OpenSCAD_Model
