solid OpenSCAD_Model
  facet normal -1 0 0
    outer loop
      vertex 0 13.5 3
      vertex 0 16 0
      vertex 0 2.5 3
    endloop
  endfacet
  facet normal -1 0 0
    outer loop
      vertex 0 0 0
      vertex 0 0 13
      vertex 0 2.5 3
    endloop
  endfacet
  facet normal -1 0 0
    outer loop
      vertex 0 0 0
      vertex 0 2.5 3
      vertex 0 16 0
    endloop
  endfacet
  facet normal -1 0 0
    outer loop
      vertex 0 16 0
      vertex 0 13.5 3
      vertex 0 13.5 13
    endloop
  endfacet
  facet normal -1 0 0
    outer loop
      vertex 0 16 0
      vertex 0 13.5 13
      vertex 0 16 13
    endloop
  endfacet
  facet normal -1 0 0
    outer loop
      vertex 0 2.5 3
      vertex 0 0 13
      vertex 0 2.5 13
    endloop
  endfacet
  facet normal 0 -1 0
    outer loop
      vertex 2.5 0 3
      vertex 0 0 0
      vertex 16 0 0
    endloop
  endfacet
  facet normal 0 -1 0
    outer loop
      vertex 2.5 0 3
      vertex 2.5 0 13
      vertex 0 0 13
    endloop
  endfacet
  facet normal 0 -1 0
    outer loop
      vertex 16 0 13
      vertex 13.5 0 13
      vertex 16 0 0
    endloop
  endfacet
  facet normal 0 -1 0
    outer loop
      vertex 13.5 0 13
      vertex 13.5 0 3
      vertex 16 0 0
    endloop
  endfacet
  facet normal 0 -1 0
    outer loop
      vertex 0 0 13
      vertex 0 0 0
      vertex 2.5 0 3
    endloop
  endfacet
  facet normal 0 -1 0
    outer loop
      vertex 13.5 0 3
      vertex 2.5 0 3
      vertex 16 0 0
    endloop
  endfacet
  facet normal 0 0 -1
    outer loop
      vertex 0 0 0
      vertex 0 16 0
      vertex 16 0 0
    endloop
  endfacet
  facet normal 0 0 -1
    outer loop
      vertex 16 0 0
      vertex 0 16 0
      vertex 16 16 0
    endloop
  endfacet
  facet normal 0 1 0
    outer loop
      vertex 13.5 16 3
      vertex 16 16 0
      vertex 2.5 16 3
    endloop
  endfacet
  facet normal 0 1 0
    outer loop
      vertex 0 16 0
      vertex 0 16 13
      vertex 2.5 16 3
    endloop
  endfacet
  facet normal 0 1 0
    outer loop
      vertex 0 16 0
      vertex 2.5 16 3
      vertex 16 16 0
    endloop
  endfacet
  facet normal 0 1 0
    outer loop
      vertex 16 16 0
      vertex 13.5 16 3
      vertex 13.5 16 13
    endloop
  endfacet
  facet normal 0 1 0
    outer loop
      vertex 16 16 0
      vertex 13.5 16 13
      vertex 16 16 13
    endloop
  endfacet
  facet normal 0 1 0
    outer loop
      vertex 2.5 16 3
      vertex 0 16 13
      vertex 2.5 16 13
    endloop
  endfacet
  facet normal 0 0 1
    outer loop
      vertex 0 16 13
      vertex 0 13.5 13
      vertex 2.5 13.5 13
    endloop
  endfacet
  facet normal 0 0 1
    outer loop
      vertex 2.5 16 13
      vertex 0 16 13
      vertex 2.5 13.5 13
    endloop
  endfacet
  facet normal 0 -1 0
    outer loop
      vertex 0 13.5 13
      vertex 0 13.5 3
      vertex 2.5 13.5 3
    endloop
  endfacet
  facet normal 0 -1 0
    outer loop
      vertex 2.5 13.5 13
      vertex 0 13.5 13
      vertex 2.5 13.5 3
    endloop
  endfacet
  facet normal 0 0 1
    outer loop
      vertex 13.5 2.5 3
      vertex 16 2.5 3
      vertex 0 13.5 3
    endloop
  endfacet
  facet normal 0 0 1
    outer loop
      vertex 0 13.5 3
      vertex 0 2.5 3
      vertex 2.5 2.5 3
    endloop
  endfacet
  facet normal 0 0 1
    outer loop
      vertex 13.5 0 3
      vertex 0 13.5 3
      vertex 2.5 2.5 3
    endloop
  endfacet
  facet normal 0 0 1
    outer loop
      vertex 2.5 0 3
      vertex 13.5 0 3
      vertex 2.5 2.5 3
    endloop
  endfacet
  facet normal 0 0 1
    outer loop
      vertex 13.5 0 3
      vertex 13.5 2.5 3
      vertex 0 13.5 3
    endloop
  endfacet
  facet normal 0 0 1
    outer loop
      vertex 16 2.5 3
      vertex 13.5 13.5 3
      vertex 2.5 13.5 3
    endloop
  endfacet
  facet normal 0 0 1
    outer loop
      vertex 16 2.5 3
      vertex 16 13.5 3
      vertex 13.5 13.5 3
    endloop
  endfacet
  facet normal 0 0 1
    outer loop
      vertex 16 2.5 3
      vertex 2.5 13.5 3
      vertex 0 13.5 3
    endloop
  endfacet
  facet normal 0 0 1
    outer loop
      vertex 13.5 13.5 3
      vertex 13.5 16 3
      vertex 2.5 13.5 3
    endloop
  endfacet
  facet normal 0 0 1
    outer loop
      vertex 2.5 16 3
      vertex 2.5 13.5 3
      vertex 13.5 16 3
    endloop
  endfacet
  facet normal 0 1 0
    outer loop
      vertex 0 2.5 3
      vertex 0 2.5 13
      vertex 2.5 2.5 3
    endloop
  endfacet
  facet normal 0 1 0
    outer loop
      vertex 2.5 2.5 3
      vertex 0 2.5 13
      vertex 2.5 2.5 13
    endloop
  endfacet
  facet normal 0 0 1
    outer loop
      vertex 0 2.5 13
      vertex 0 0 13
      vertex 2.5 0 13
    endloop
  endfacet
  facet normal 0 0 1
    outer loop
      vertex 2.5 2.5 13
      vertex 0 2.5 13
      vertex 2.5 0 13
    endloop
  endfacet
  facet normal 1 0 0
    outer loop
      vertex 2.5 0 13
      vertex 2.5 0 3
      vertex 2.5 2.5 3
    endloop
  endfacet
  facet normal 1 0 0
    outer loop
      vertex 2.5 2.5 13
      vertex 2.5 0 13
      vertex 2.5 2.5 3
    endloop
  endfacet
  facet normal -1 0 0
    outer loop
      vertex 13.5 0 3
      vertex 13.5 0 13
      vertex 13.5 2.5 3
    endloop
  endfacet
  facet normal -1 0 0
    outer loop
      vertex 13.5 2.5 3
      vertex 13.5 0 13
      vertex 13.5 2.5 13
    endloop
  endfacet
  facet normal 0 0 1
    outer loop
      vertex 13.5 2.5 13
      vertex 13.5 0 13
      vertex 16 0 13
    endloop
  endfacet
  facet normal 0 0 1
    outer loop
      vertex 16 2.5 13
      vertex 13.5 2.5 13
      vertex 16 0 13
    endloop
  endfacet
  facet normal 1 0 0
    outer loop
      vertex 16 2.5 3
      vertex 16 0 0
      vertex 16 16 0
    endloop
  endfacet
  facet normal 1 0 0
    outer loop
      vertex 16 2.5 3
      vertex 16 2.5 13
      vertex 16 0 13
    endloop
  endfacet
  facet normal 1 0 0
    outer loop
      vertex 16 16 13
      vertex 16 13.5 13
      vertex 16 16 0
    endloop
  endfacet
  facet normal 1 0 0
    outer loop
      vertex 16 13.5 13
      vertex 16 13.5 3
      vertex 16 16 0
    endloop
  endfacet
  facet normal 1 0 0
    outer loop
      vertex 16 0 13
      vertex 16 0 0
      vertex 16 2.5 3
    endloop
  endfacet
  facet normal 1 0 0
    outer loop
      vertex 16 13.5 3
      vertex 16 2.5 3
      vertex 16 16 0
    endloop
  endfacet
  facet normal 0 0 1
    outer loop
      vertex 13.5 16 13
      vertex 13.5 13.5 13
      vertex 16 13.5 13
    endloop
  endfacet
  facet normal 0 0 1
    outer loop
      vertex 16 16 13
      vertex 13.5 16 13
      vertex 16 13.5 13
    endloop
  endfacet
  facet normal -1 0 0
    outer loop
      vertex 13.5 13.5 3
      vertex 13.5 13.5 13
      vertex 13.5 16 3
    endloop
  endfacet
  facet normal -1 0 0
    outer loop
      vertex 13.5 16 3
      vertex 13.5 13.5 13
      vertex 13.5 16 13
    endloop
  endfacet
  facet normal 1 0 0
    outer loop
      vertex 2.5 13.5 13
      vertex 2.5 13.5 3
      vertex 2.5 16 3
    endloop
  endfacet
  facet normal 1 0 0
    outer loop
      vertex 2.5 16 13
      vertex 2.5 13.5 13
      vertex 2.5 16 3
    endloop
  endfacet
  facet normal 0 -1 0
    outer loop
      vertex 13.5 13.5 13
      vertex 13.5 13.5 3
      vertex 16 13.5 3
    endloop
  endfacet
  facet normal 0 -1 0
    outer loop
      vertex 16 13.5 13
      vertex 13.5 13.5 13
      vertex 16 13.5 3
    endloop
  endfacet
  facet normal 0 1 0
    outer loop
      vertex 13.5 2.5 3
      vertex 13.5 2.5 13
      vertex 16 2.5 3
    endloop
  endfacet
  facet normal 0 1 0
    outer loop
      vertex 16 2.5 3
      vertex 13.5 2.5 13
      vertex 16 2.5 13
    endloop
  endfacet
endsolid OpenSCAD_Model
