solid OpenSCAD_Model
  facet normal -1 0 0
    outer loop
      vertex 0 0 0
      vertex 0 0 15.25
      vertex 0 18 0
    endloop
  endfacet
  facet normal -1 0 0
    outer loop
      vertex 0 18 0
      vertex 0 0 15.25
      vertex 0 18 15.25
    endloop
  endfacet
  facet normal 0 -1 0
    outer loop
      vertex 0 0 15.25
      vertex 0 0 0
      vertex 18 0 0
    endloop
  endfacet
  facet normal 0 -1 0
    outer loop
      vertex 18 0 15.25
      vertex 0 0 15.25
      vertex 18 0 0
    endloop
  endfacet
  facet normal 0 0 -1
    outer loop
      vertex 0 0 0
      vertex 0 18 0
      vertex 18 0 0
    endloop
  endfacet
  facet normal 0 0 -1
    outer loop
      vertex 18 0 0
      vertex 0 18 0
      vertex 18 18 0
    endloop
  endfacet
  facet normal 0 1 0
    outer loop
      vertex 15.5 18 3.25
      vertex 18 18 0
      vertex 2.5 18 3.25
    endloop
  endfacet
  facet normal 0 1 0
    outer loop
      vertex 0 18 0
      vertex 0 18 15.25
      vertex 2.5 18 3.25
    endloop
  endfacet
  facet normal 0 1 0
    outer loop
      vertex 0 18 0
      vertex 2.5 18 3.25
      vertex 18 18 0
    endloop
  endfacet
  facet normal 0 1 0
    outer loop
      vertex 18 18 0
      vertex 15.5 18 3.25
      vertex 15.5 18 15.25
    endloop
  endfacet
  facet normal 0 1 0
    outer loop
      vertex 18 18 0
      vertex 15.5 18 15.25
      vertex 18 18 15.25
    endloop
  endfacet
  facet normal 0 1 0
    outer loop
      vertex 2.5 18 3.25
      vertex 0 18 15.25
      vertex 2.5 18 15.25
    endloop
  endfacet
  facet normal 0 0 1
    outer loop
      vertex 15.5 2.5 15.25
      vertex 0 0 15.25
      vertex 18 0 15.25
    endloop
  endfacet
  facet normal 0 0 1
    outer loop
      vertex 2.5 2.5 15.25
      vertex 0 18 15.25
      vertex 0 0 15.25
    endloop
  endfacet
  facet normal 0 0 1
    outer loop
      vertex 18 18 15.25
      vertex 15.5 18 15.25
      vertex 18 0 15.25
    endloop
  endfacet
  facet normal 0 0 1
    outer loop
      vertex 15.5 18 15.25
      vertex 15.5 2.5 15.25
      vertex 18 0 15.25
    endloop
  endfacet
  facet normal 0 0 1
    outer loop
      vertex 15.5 2.5 15.25
      vertex 2.5 2.5 15.25
      vertex 0 0 15.25
    endloop
  endfacet
  facet normal 0 0 1
    outer loop
      vertex 2.5 2.5 15.25
      vertex 2.5 18 15.25
      vertex 0 18 15.25
    endloop
  endfacet
  facet normal 1 0 0
    outer loop
      vertex 18 0 15.25
      vertex 18 0 0
      vertex 18 18 0
    endloop
  endfacet
  facet normal 1 0 0
    outer loop
      vertex 18 18 15.25
      vertex 18 0 15.25
      vertex 18 18 0
    endloop
  endfacet
  facet normal -1 0 0
    outer loop
      vertex 15.5 2.5 3.25
      vertex 15.5 2.5 15.25
      vertex 15.5 18 3.25
    endloop
  endfacet
  facet normal -1 0 0
    outer loop
      vertex 15.5 18 3.25
      vertex 15.5 2.5 15.25
      vertex 15.5 18 15.25
    endloop
  endfacet
  facet normal 0 0 1
    outer loop
      vertex 2.5 18 3.25
      vertex 2.5 2.5 3.25
      vertex 15.5 2.5 3.25
    endloop
  endfacet
  facet normal 0 0 1
    outer loop
      vertex 15.5 18 3.25
      vertex 2.5 18 3.25
      vertex 15.5 2.5 3.25
    endloop
  endfacet
  facet normal 1 0 0
    outer loop
      vertex 2.5 2.5 15.25
      vertex 2.5 2.5 3.25
      vertex 2.5 18 3.25
    endloop
  endfacet
  facet normal 1 0 0
    outer loop
      vertex 2.5 18 15.25
      vertex 2.5 2.5 15.25
      vertex 2.5 18 3.25
    endloop
  endfacet
  facet normal 0 1 0
    outer loop
      vertex 2.5 2.5 3.25
      vertex 2.5 2.5 15.25
      vertex 15.5 2.5 3.25
    endloop
  endfacet
  facet normal 0 1 0
    outer loop
      vertex 15.5 2.5 3.25
      vertex 2.5 2.5 15.25
      vertex 15.5 2.5 15.25
    endloop
  endfacet
endsolid OpenSCAD_Model
