solid OpenSCAD_Model
  facet normal -1 0 0
    outer loop
      vertex 0 0 0
      vertex 0 0 20.25
      vertex 0 22 0
    endloop
  endfacet
  facet normal -1 0 0
    outer loop
      vertex 0 22 0
      vertex 0 0 20.25
      vertex 0 22 20.25
    endloop
  endfacet
  facet normal 0 -1 0
    outer loop
      vertex 2.5 0 4.25
      vertex 0 0 0
      vertex 22 0 0
    endloop
  endfacet
  facet normal 0 -1 0
    outer loop
      vertex 2.5 0 4.25
      vertex 2.5 0 20.25
      vertex 0 0 20.25
    endloop
  endfacet
  facet normal 0 -1 0
    outer loop
      vertex 22 0 20.25
      vertex 19.5 0 20.25
      vertex 22 0 0
    endloop
  endfacet
  facet normal 0 -1 0
    outer loop
      vertex 19.5 0 20.25
      vertex 19.5 0 4.25
      vertex 22 0 0
    endloop
  endfacet
  facet normal 0 -1 0
    outer loop
      vertex 0 0 20.25
      vertex 0 0 0
      vertex 2.5 0 4.25
    endloop
  endfacet
  facet normal 0 -1 0
    outer loop
      vertex 19.5 0 4.25
      vertex 2.5 0 4.25
      vertex 22 0 0
    endloop
  endfacet
  facet normal 0 0 -1
    outer loop
      vertex 0 0 0
      vertex 0 22 0
      vertex 22 0 0
    endloop
  endfacet
  facet normal 0 0 -1
    outer loop
      vertex 22 0 0
      vertex 0 22 0
      vertex 22 22 0
    endloop
  endfacet
  facet normal 0 1 0
    outer loop
      vertex 0 22 0
      vertex 0 22 20.25
      vertex 22 22 0
    endloop
  endfacet
  facet normal 0 1 0
    outer loop
      vertex 22 22 0
      vertex 0 22 20.25
      vertex 22 22 20.25
    endloop
  endfacet
  facet normal 0 0 1
    outer loop
      vertex 0 22 20.25
      vertex 0 0 20.25
      vertex 2.5 0 20.25
    endloop
  endfacet
  facet normal 0 0 1
    outer loop
      vertex 19.5 19.5 20.25
      vertex 0 22 20.25
      vertex 2.5 19.5 20.25
    endloop
  endfacet
  facet normal 0 0 1
    outer loop
      vertex 2.5 19.5 20.25
      vertex 0 22 20.25
      vertex 2.5 0 20.25
    endloop
  endfacet
  facet normal 0 0 1
    outer loop
      vertex 22 22 20.25
      vertex 0 22 20.25
      vertex 19.5 19.5 20.25
    endloop
  endfacet
  facet normal 0 0 1
    outer loop
      vertex 22 0 20.25
      vertex 19.5 19.5 20.25
      vertex 19.5 0 20.25
    endloop
  endfacet
  facet normal 0 0 1
    outer loop
      vertex 22 22 20.25
      vertex 19.5 19.5 20.25
      vertex 22 0 20.25
    endloop
  endfacet
  facet normal 1 0 0
    outer loop
      vertex 2.5 0 20.25
      vertex 2.5 0 4.25
      vertex 2.5 19.5 4.25
    endloop
  endfacet
  facet normal 1 0 0
    outer loop
      vertex 2.5 19.5 20.25
      vertex 2.5 0 20.25
      vertex 2.5 19.5 4.25
    endloop
  endfacet
  facet normal 0 0 1
    outer loop
      vertex 2.5 19.5 4.25
      vertex 2.5 0 4.25
      vertex 19.5 0 4.25
    endloop
  endfacet
  facet normal 0 0 1
    outer loop
      vertex 19.5 19.5 4.25
      vertex 2.5 19.5 4.25
      vertex 19.5 0 4.25
    endloop
  endfacet
  facet normal -1 0 0
    outer loop
      vertex 19.5 0 4.25
      vertex 19.5 0 20.25
      vertex 19.5 19.5 4.25
    endloop
  endfacet
  facet normal -1 0 0
    outer loop
      vertex 19.5 19.5 4.25
      vertex 19.5 0 20.25
      vertex 19.5 19.5 20.25
    endloop
  endfacet
  facet normal 1 0 0
    outer loop
      vertex 22 0 20.25
      vertex 22 0 0
      vertex 22 22 0
    endloop
  endfacet
  facet normal 1 0 0
    outer loop
      vertex 22 22 20.25
      vertex 22 0 20.25
      vertex 22 22 0
    endloop
  endfacet
  facet normal 0 -1 0
    outer loop
      vertex 2.5 19.5 20.25
      vertex 2.5 19.5 4.25
      vertex 19.5 19.5 4.25
    endloop
  endfacet
  facet normal 0 -1 0
    outer loop
      vertex 19.5 19.5 20.25
      vertex 2.5 19.5 20.25
      vertex 19.5 19.5 4.25
    endloop
  endfacet
endsolid OpenSCAD_Model
