solid OpenSCAD_Model
  facet normal -1 0 0
    outer loop
      vertex 0 12.5 3
      vertex 0 15 0
      vertex 0 2.5 3
    endloop
  endfacet
  facet normal -1 0 0
    outer loop
      vertex 0 0 0
      vertex 0 0 12
      vertex 0 2.5 3
    endloop
  endfacet
  facet normal -1 0 0
    outer loop
      vertex 0 0 0
      vertex 0 2.5 3
      vertex 0 15 0
    endloop
  endfacet
  facet normal -1 0 0
    outer loop
      vertex 0 15 0
      vertex 0 12.5 3
      vertex 0 12.5 12
    endloop
  endfacet
  facet normal -1 0 0
    outer loop
      vertex 0 15 0
      vertex 0 12.5 12
      vertex 0 15 12
    endloop
  endfacet
  facet normal -1 0 0
    outer loop
      vertex 0 2.5 3
      vertex 0 0 12
      vertex 0 2.5 12
    endloop
  endfacet
  facet normal 0 -1 0
    outer loop
      vertex 2.5 0 3
      vertex 0 0 0
      vertex 15 0 0
    endloop
  endfacet
  facet normal 0 -1 0
    outer loop
      vertex 2.5 0 3
      vertex 2.5 0 12
      vertex 0 0 12
    endloop
  endfacet
  facet normal 0 -1 0
    outer loop
      vertex 15 0 12
      vertex 12.5 0 12
      vertex 15 0 0
    endloop
  endfacet
  facet normal 0 -1 0
    outer loop
      vertex 12.5 0 12
      vertex 12.5 0 3
      vertex 15 0 0
    endloop
  endfacet
  facet normal 0 -1 0
    outer loop
      vertex 0 0 12
      vertex 0 0 0
      vertex 2.5 0 3
    endloop
  endfacet
  facet normal 0 -1 0
    outer loop
      vertex 12.5 0 3
      vertex 2.5 0 3
      vertex 15 0 0
    endloop
  endfacet
  facet normal 0 0 -1
    outer loop
      vertex 0 0 0
      vertex 0 15 0
      vertex 15 0 0
    endloop
  endfacet
  facet normal 0 0 -1
    outer loop
      vertex 15 0 0
      vertex 0 15 0
      vertex 15 15 0
    endloop
  endfacet
  facet normal 0 1 0
    outer loop
      vertex 0 15 0
      vertex 0 15 12
      vertex 15 15 0
    endloop
  endfacet
  facet normal 0 1 0
    outer loop
      vertex 15 15 0
      vertex 0 15 12
      vertex 15 15 12
    endloop
  endfacet
  facet normal 0 0 1
    outer loop
      vertex 0 15 12
      vertex 0 12.5 12
      vertex 12.5 12.5 12
    endloop
  endfacet
  facet normal 0 0 1
    outer loop
      vertex 15 15 12
      vertex 0 15 12
      vertex 12.5 12.5 12
    endloop
  endfacet
  facet normal 0 0 1
    outer loop
      vertex 12.5 0 12
      vertex 15 0 12
      vertex 12.5 12.5 12
    endloop
  endfacet
  facet normal 0 0 1
    outer loop
      vertex 15 0 12
      vertex 15 15 12
      vertex 12.5 12.5 12
    endloop
  endfacet
  facet normal 0 -1 0
    outer loop
      vertex 0 12.5 12
      vertex 0 12.5 3
      vertex 12.5 12.5 3
    endloop
  endfacet
  facet normal 0 -1 0
    outer loop
      vertex 12.5 12.5 12
      vertex 0 12.5 12
      vertex 12.5 12.5 3
    endloop
  endfacet
  facet normal 0 0 1
    outer loop
      vertex 0 12.5 3
      vertex 0 2.5 3
      vertex 2.5 2.5 3
    endloop
  endfacet
  facet normal 0 0 1
    outer loop
      vertex 12.5 0 3
      vertex 0 12.5 3
      vertex 2.5 2.5 3
    endloop
  endfacet
  facet normal 0 0 1
    outer loop
      vertex 2.5 0 3
      vertex 12.5 0 3
      vertex 2.5 2.5 3
    endloop
  endfacet
  facet normal 0 0 1
    outer loop
      vertex 12.5 0 3
      vertex 12.5 12.5 3
      vertex 0 12.5 3
    endloop
  endfacet
  facet normal 0 1 0
    outer loop
      vertex 0 2.5 3
      vertex 0 2.5 12
      vertex 2.5 2.5 3
    endloop
  endfacet
  facet normal 0 1 0
    outer loop
      vertex 2.5 2.5 3
      vertex 0 2.5 12
      vertex 2.5 2.5 12
    endloop
  endfacet
  facet normal 0 0 1
    outer loop
      vertex 0 2.5 12
      vertex 0 0 12
      vertex 2.5 0 12
    endloop
  endfacet
  facet normal 0 0 1
    outer loop
      vertex 2.5 2.5 12
      vertex 0 2.5 12
      vertex 2.5 0 12
    endloop
  endfacet
  facet normal 1 0 0
    outer loop
      vertex 2.5 0 12
      vertex 2.5 0 3
      vertex 2.5 2.5 3
    endloop
  endfacet
  facet normal 1 0 0
    outer loop
      vertex 2.5 2.5 12
      vertex 2.5 0 12
      vertex 2.5 2.5 3
    endloop
  endfacet
  facet normal -1 0 0
    outer loop
      vertex 12.5 0 3
      vertex 12.5 0 12
      vertex 12.5 12.5 3
    endloop
  endfacet
  facet normal -1 0 0
    outer loop
      vertex 12.5 12.5 3
      vertex 12.5 0 12
      vertex 12.5 12.5 12
    endloop
  endfacet
  facet normal 1 0 0
    outer loop
      vertex 15 0 12
      vertex 15 0 0
      vertex 15 15 0
    endloop
  endfacet
  facet normal 1 0 0
    outer loop
      vertex 15 15 12
      vertex 15 0 12
      vertex 15 15 0
    endloop
  endfacet
endsolid OpenSCAD_Model
