solid OpenSCAD_Model
  facet normal -1 0 0
    outer loop
      vertex 0 8.5 3
      vertex 0 11 0
      vertex 0 2.5 3
    endloop
  endfacet
  facet normal -1 0 0
    outer loop
      vertex 0 0 0
      vertex 0 0 8
      vertex 0 2.5 3
    endloop
  endfacet
  facet normal -1 0 0
    outer loop
      vertex 0 0 0
      vertex 0 2.5 3
      vertex 0 11 0
    endloop
  endfacet
  facet normal -1 0 0
    outer loop
      vertex 0 11 0
      vertex 0 8.5 3
      vertex 0 8.5 8
    endloop
  endfacet
  facet normal -1 0 0
    outer loop
      vertex 0 11 0
      vertex 0 8.5 8
      vertex 0 11 8
    endloop
  endfacet
  facet normal -1 0 0
    outer loop
      vertex 0 2.5 3
      vertex 0 0 8
      vertex 0 2.5 8
    endloop
  endfacet
  facet normal 0 -1 0
    outer loop
      vertex 0 0 8
      vertex 0 0 0
      vertex 11 0 0
    endloop
  endfacet
  facet normal 0 -1 0
    outer loop
      vertex 11 0 8
      vertex 0 0 8
      vertex 11 0 0
    endloop
  endfacet
  facet normal 0 0 -1
    outer loop
      vertex 0 0 0
      vertex 0 11 0
      vertex 11 0 0
    endloop
  endfacet
  facet normal 0 0 -1
    outer loop
      vertex 11 0 0
      vertex 0 11 0
      vertex 11 11 0
    endloop
  endfacet
  facet normal 0 1 0
    outer loop
      vertex 8.5 11 3
      vertex 11 11 0
      vertex 2.5 11 3
    endloop
  endfacet
  facet normal 0 1 0
    outer loop
      vertex 0 11 0
      vertex 0 11 8
      vertex 2.5 11 3
    endloop
  endfacet
  facet normal 0 1 0
    outer loop
      vertex 0 11 0
      vertex 2.5 11 3
      vertex 11 11 0
    endloop
  endfacet
  facet normal 0 1 0
    outer loop
      vertex 11 11 0
      vertex 8.5 11 3
      vertex 8.5 11 8
    endloop
  endfacet
  facet normal 0 1 0
    outer loop
      vertex 11 11 0
      vertex 8.5 11 8
      vertex 11 11 8
    endloop
  endfacet
  facet normal 0 1 0
    outer loop
      vertex 2.5 11 3
      vertex 0 11 8
      vertex 2.5 11 8
    endloop
  endfacet
  facet normal 0 0 1
    outer loop
      vertex 0 11 8
      vertex 0 8.5 8
      vertex 2.5 8.5 8
    endloop
  endfacet
  facet normal 0 0 1
    outer loop
      vertex 2.5 11 8
      vertex 0 11 8
      vertex 2.5 8.5 8
    endloop
  endfacet
  facet normal 0 -1 0
    outer loop
      vertex 0 8.5 8
      vertex 0 8.5 3
      vertex 2.5 8.5 3
    endloop
  endfacet
  facet normal 0 -1 0
    outer loop
      vertex 2.5 8.5 8
      vertex 0 8.5 8
      vertex 2.5 8.5 3
    endloop
  endfacet
  facet normal 0 0 1
    outer loop
      vertex 0 8.5 3
      vertex 0 2.5 3
      vertex 11 2.5 3
    endloop
  endfacet
  facet normal 0 0 1
    outer loop
      vertex 2.5 8.5 3
      vertex 0 8.5 3
      vertex 11 2.5 3
    endloop
  endfacet
  facet normal 0 0 1
    outer loop
      vertex 8.5 8.5 3
      vertex 2.5 8.5 3
      vertex 11 2.5 3
    endloop
  endfacet
  facet normal 0 0 1
    outer loop
      vertex 11 8.5 3
      vertex 8.5 8.5 3
      vertex 11 2.5 3
    endloop
  endfacet
  facet normal 0 0 1
    outer loop
      vertex 8.5 11 3
      vertex 2.5 8.5 3
      vertex 8.5 8.5 3
    endloop
  endfacet
  facet normal 0 0 1
    outer loop
      vertex 2.5 11 3
      vertex 2.5 8.5 3
      vertex 8.5 11 3
    endloop
  endfacet
  facet normal 0 1 0
    outer loop
      vertex 0 2.5 3
      vertex 0 2.5 8
      vertex 11 2.5 3
    endloop
  endfacet
  facet normal 0 1 0
    outer loop
      vertex 11 2.5 3
      vertex 0 2.5 8
      vertex 11 2.5 8
    endloop
  endfacet
  facet normal 0 0 1
    outer loop
      vertex 0 2.5 8
      vertex 0 0 8
      vertex 11 0 8
    endloop
  endfacet
  facet normal 0 0 1
    outer loop
      vertex 11 2.5 8
      vertex 0 2.5 8
      vertex 11 0 8
    endloop
  endfacet
  facet normal 1 0 0
    outer loop
      vertex 11 2.5 3
      vertex 11 0 0
      vertex 11 11 0
    endloop
  endfacet
  facet normal 1 0 0
    outer loop
      vertex 11 2.5 3
      vertex 11 2.5 8
      vertex 11 0 8
    endloop
  endfacet
  facet normal 1 0 0
    outer loop
      vertex 11 11 8
      vertex 11 8.5 8
      vertex 11 11 0
    endloop
  endfacet
  facet normal 1 0 0
    outer loop
      vertex 11 8.5 8
      vertex 11 8.5 3
      vertex 11 11 0
    endloop
  endfacet
  facet normal 1 0 0
    outer loop
      vertex 11 0 8
      vertex 11 0 0
      vertex 11 2.5 3
    endloop
  endfacet
  facet normal 1 0 0
    outer loop
      vertex 11 8.5 3
      vertex 11 2.5 3
      vertex 11 11 0
    endloop
  endfacet
  facet normal 0 0 1
    outer loop
      vertex 8.5 11 8
      vertex 8.5 8.5 8
      vertex 11 8.5 8
    endloop
  endfacet
  facet normal 0 0 1
    outer loop
      vertex 11 11 8
      vertex 8.5 11 8
      vertex 11 8.5 8
    endloop
  endfacet
  facet normal -1 0 0
    outer loop
      vertex 8.5 8.5 3
      vertex 8.5 8.5 8
      vertex 8.5 11 3
    endloop
  endfacet
  facet normal -1 0 0
    outer loop
      vertex 8.5 11 3
      vertex 8.5 8.5 8
      vertex 8.5 11 8
    endloop
  endfacet
  facet normal 1 0 0
    outer loop
      vertex 2.5 8.5 8
      vertex 2.5 8.5 3
      vertex 2.5 11 3
    endloop
  endfacet
  facet normal 1 0 0
    outer loop
      vertex 2.5 11 8
      vertex 2.5 8.5 8
      vertex 2.5 11 3
    endloop
  endfacet
  facet normal 0 -1 0
    outer loop
      vertex 8.5 8.5 8
      vertex 8.5 8.5 3
      vertex 11 8.5 3
    endloop
  endfacet
  facet normal 0 -1 0
    outer loop
      vertex 11 8.5 8
      vertex 8.5 8.5 8
      vertex 11 8.5 3
    endloop
  endfacet
endsolid OpenSCAD_Model
